<?xml version='1.0' encoding='UTF-8'?>
<svg xmlns:inkscape="http://www.inkscape.org/namespaces/inkscape" xmlns:sodipodi="http://sodipodi.sourceforge.net/DTD/sodipodi-0.dtd" xmlns="http://www.w3.org/2000/svg" xmlns:svg="http://www.w3.org/2000/svg" viewBox="0 0 24 24" fill="none" stroke="currentColor" stroke-width="2" stroke-linecap="round" stroke-linejoin="round" version="1.1" id="svg3" sodipodi:docname="favicon-draft.svg" inkscape:version="1.3 (0e150ed, 2023-07-21)">
  <defs id="defs3"/>
  <sodipodi:namedview id="namedview3" pagecolor="#ffffff" bordercolor="#000000" borderopacity="0.25" inkscape:showpageshadow="2" inkscape:pageopacity="0.0" inkscape:pagecheckerboard="0" inkscape:deskcolor="#d1d1d1" inkscape:zoom="48.822272" inkscape:cx="15.044363" inkscape:cy="11.459934" inkscape:window-width="2552" inkscape:window-height="1212" inkscape:window-x="213" inkscape:window-y="273" inkscape:window-maximized="0" inkscape:current-layer="svg3"/>
  <!-- open book -->
  <path d="M 11.134035915841883,7.500033622101327 L 11.1340292909311,7.501239169606899 L 11.14324694797996,7.710075441069223 L 11.15231420091207,7.918509114014929 L 11.161172871245242,8.125339462196928 L 11.169820146388414,8.33061993067081 L 11.178253213751432,8.534403964555024 L 11.186469260743745,8.736745009020161 L 11.19446547477417,8.937696509306088 L 11.20223904324909,9.137311910701547 L 11.20978715357153,9.33564465854538 L 11.217106993140048,9.53274819822464 L 11.224195749347567,9.728675975170828 L 11.231050609580185,9.923481434856008 L 11.231052388070125,9.923532726214974 L 11.237668761215637,10.117218022779218 L 11.237670545333973,10.117271075763586 L 11.244047391622566,10.309939184473885 L 11.244049175243793,10.309993983006562 L 11.25018368815905,10.501698365494972 L 11.250185464943455,10.50175489020852 L 11.256074838171418,10.692549011411401 L 11.256076601588925,10.692607239616217 L 11.26171802899318,10.882544567800837 L 11.261719772349403,10.882604473466523 L 11.267110447944036,11.071738480245036 L 11.267112164408415,11.071800033995585 L 11.272249282328834,11.260184194320196 L 11.272250964964677,11.260247363443467 L 11.277131719436772,11.447935155593312 L 11.277133361233037,11.447999904065219 L 11.281754946540358,11.635044809605045 L 11.281756540444968,11.635111098128744 L 11.286116150895118,11.821566601875976 L 11.286117689849535,11.821634387936244 L 11.290212519738807,12.007553977889591 L 11.290213996713641,12.007623215822473 L 11.294041240290987,12.193060383083917 L 11.294042648322353,12.193131024161545 L 11.297599499752948,12.378139262850517 L 11.297600831979251,12.378211255380995 L 11.300884485307515,12.562844062524313 L 11.30088573500637,12.562917351966256 L 11.303893384119057,12.747228227372792 L 11.303894544744027,12.74730275646418 L 11.306623383333777,12.931345202592409 L 11.30662444855059,12.931420911493094 L 11.309071670080183,13.115248433308174 L 11.309072633802087,13.11532525975542 L 11.311235431469385,13.298991364550217 L 11.311236287891369,13.29906924402641 L 11.313111854596107,13.482627441269019 L 11.313112598227596,13.482706307180669 L 11.31469812653936,13.666210108316703 L 11.314698752235142,13.66628989218365 L 11.315991434363488,13.84979281044424 L 11.315991937352557,13.849873442097996 L 11.316988965119366,14.03342899230212 L 11.316989341031416,14.033510400092123 L 11.31768790584563,14.217172098436452 L 11.317688150734956,14.217254209442924 L 11.318085443570048,14.401075573279023 L 11.318085553936655,14.401158313531173 L 11.318178765311016,14.585192861154066 L 11.318178738118736,14.585276155852172 L 11.317965058079105,14.769577406273617 L 11.317964890770575,14.769661180013669 L 11.317441508878678,14.954282652733403 L 11.317441199387082,14.95436682973283 L 11.31660530470953,15.139362044521489 L 11.31660485146699,15.139446548844596 L 11.31545363256858,15.324869025512083 L 11.315453034511203,15.324953781293793 L 11.31398367945157,15.510857039465952 L 11.313982936021116,15.510941971132478 L 11.312192632354689,15.697379530040797 L 11.312191743496902,15.697464562525973 L 11.310077678276265,15.884489940785965 L 11.310076644435934,15.884574999741917 L 11.307636004218363,16.072241715147005 L 11.307634826331235,16.07232672714805 L 11.304864797188193,16.2606882964786 L 11.30486347666983,16.260773189217215 L 11.301761244199767,16.449883128032706 L 11.301759782931574,16.4499678305066 L 11.298322532275037,16.639879652979936 L 11.298320932587586,16.639964095669296 L 11.29454584844532,16.830731314403184 L 11.29454411309923,16.830815429437298 L 11.290428379752312,17.022491555310197 L 11.290426511916886,17.02257527662275 L 11.285967313249225,17.215213818633973 L 11.28596531647912,17.215297082106478 L 11.281159836001466,17.40895154724792 L 11.28115771421161,17.40903429084076 L 11.276003135087745,17.603758183957567 L 11.276000892526826,17.603840347828374 L 11.270494397600256,17.799687171524702 L 11.270492038822988,17.799768698133754 L 11.264630810645583,17.99679195265798 L 11.264628340484075,17.996872786860582 L 11.258409561344752,18.195125970030507 L 11.258406984879201,18.195206059156263 L 11.251827836833677,18.394742666278724 L 11.25182515936268,18.39482196019785 L 11.24488282426303,18.59569548401627 L 11.244880051273737,18.595773935193055 L 11.23757171079842,18.79803786583368 L 11.23756884793679,18.798115429367446 L 11.229891683620115,19.00182325430909 L 11.229888736661483,19.001899887962942 L 11.221839929922993,19.20710509200852 L 11.221836904743167,19.20718075622631 L 11.213413636915975,19.413936821497916 L 11.213410539463052,19.414011479409965 L 11.204609991821664,19.622371885346393 L 11.204606828088728,19.622445502764393 L 11.19547766005281,19.831286101482988 L 11.195483143272792,19.832403523148937 L 11.196476867110002,19.83189247111584 L 12.926388842432505,18.833127326489034 L 12.927415614647789,18.83246371691275 L 12.92753019681829,18.831246544049904 L 12.936657635941645,18.622445496266725 L 12.94546134758114,18.41401146617664 L 12.953887712860226,18.207180742520027 L 12.961939544775554,18.001899873790297 L 12.96961965604592,17.798115414735353 L 12.976930859375987,17.595773920108392 L 12.983875967455997,17.394821944671666 L 12.990457792961518,17.195206043201445 L 12.99667914855325,16.99687277049417 L 13.002542846877022,16.799768681370907 L 13.00805170056361,16.603840330690627 L 13.01320852222919,16.40903427334836 L 13.018016124475475,16.215297064286723 L 13.022477319890266,16.02257525849752 L 13.026594921047804,15.830815411038303 L 13.030371740509734,15.639964077026587 L 13.033810590825825,15.449967811651417 L 13.036914284534845,15.260773170184036 L 13.03968563416584,15.072326707973724 L 13.042127452239225,14.884574980459128 L 13.044242551268068,14.697464543176444 L 13.046033743759619,14.510941951754933 L 13.047503842216747,14.324953761924382 L 13.048655659139449,14.139446529527545 L 13.04949200702661,13.954366810504995 L 13.050015698377537,13.769661160915089 L 13.050229545693718,13.585276136924149 L 13.050136361480476,13.401158294813246 L 13.04973895824864,13.217254190970893 L 13.049040148516198,13.033510381905895 L 13.048042744809841,12.849873424230141 L 13.046749559666516,12.666289874668642 L 13.045163405634817,12.482706290052548 L 13.043287095276302,12.299069227314133 L 13.041123441166713,12.11532524348644 L 13.03867525589701,11.931420895694968 L 13.035945352074327,11.747302741155876 L 13.032936542322776,11.562917337170985 L 13.029651639283957,11.378211241115602 L 13.026093455617572,11.193131010441673 L 13.02226480400151,11.007623202658365 L 13.01816849713224,10.821634375339626 L 13.013807347724526,10.635111086104123 L 13.00918416851142,10.447999892616044 L 13.004301772243773,10.260247352571257 L 12.999162971690026,10.071800023700215 L 12.993770579635084,9.882604463741043 L 12.988127408880223,9.692607230455843 L 12.982236272241712,9.501754881604176 L 12.976099982550279,9.309993974949553 L 12.969721352649655,9.117271068238626 L 12.963103195395913,8.923532719208074 L 12.956248323656101,8.728725485571351 L 12.949159550307044,8.532795925012358 L 12.941839688234289,8.335690595184245 L 12.934291550330714,8.137356053699161 L 12.926517949495404,7.93773885812665 L 12.918521698632496,7.736785565990274 L 12.910305610650049,7.534442734764746 L 12.901872498458312,7.3306569218584405 L 12.8932251749698,7.125374684639273 L 12.88436645309696,6.918542580400897 L 12.875299145752493,6.710107166391598 L 12.866079228582441,6.501219461985125 L 12.865974272326875,6.500093253001666 L 12.86496828946931,6.500610325234404 L 11.13504879341343,7.499379811958647 L 11.134035915841883,7.500033622101327 Z" id="path1" sodipodi:nodetypes="cc" style="fill: currentColor; stroke: none" fill-rule="evenodd"/>
  <!-- book outline (minus top-right corner) -->
  <path d="M 1.134035550164214,4.3000335223606685 L 1.1340260229600458,4.3012364186539225 L 1.1432017423026586,4.521842071846918 L 1.1432044379726216,4.521907927382332 L 1.1521373324426933,4.743717065860865 L 1.1521399415710634,4.7437829318855815 L 1.1607799538532964,4.965592060580943 L 1.160782476399306,4.9656579367537015 L 1.169129606533807,5.187467055982369 L 1.1691320424580307,5.18753294196165 L 1.17718629048354,5.409342052039751 L 1.1771886397478961,5.409407947483776 L 1.1849500057018258,5.631217048728101 L 1.1849522682695783,5.631282953294846 L 1.1924207521880001,5.853092046022604 L 1.1924229280237595,5.85315795936981 L 1.1995985299413745,6.0749670438977885 L 1.1996006190111002,6.075032965682963 L 1.2064833389612921,6.296842042329134 L 1.206485341232293,6.296907972209568 L 1.2130751792470618,6.51871704129109 L 1.2130770946879985,6.518782978923864 L 1.2193740507980138,6.7405920407587905 L 1.2193758793788998,6.74065798580078 L 1.225379953613472,6.962467040707163 L 1.2253816953056746,6.962532992815052 L 1.231092887692754,7.1843420411109635 L 1.2310945424689963,7.184407999941252 L 1.2365128530351857,7.406217041945251 L 1.2365144208695467,7.406283007154261 L 1.2416398496400944,7.62809204318517 L 1.2416413305080107,7.6281580144290615 L 1.2464738775067847,7.84996704480493 L 1.2464752713850524,7.850033021739702 L 1.2510149366345937,8.071842046780187 L 1.2510162435013676,8.07190802906169 L 1.2552630270228335,8.293717049085508 L 1.2552642468576298,8.293783036369456 L 1.2592181486708163,8.515592051695391 L 1.2592192814545125,8.515658043637364 L 1.2628803015778787,8.737467054585668 L 1.2628813472927143,8.737533050841126 L 1.2662494857433222,8.959342057730215 L 1.2662504443729004,8.959408057954503 L 1.2693257011664731,9.181217061104471 L 1.2693265726957608,9.181283064952833 L 1.2721089478466503,9.403092064683351 L 1.2721097322619785,9.403158071810935 L 1.274599225783167,9.624967068441393 L 1.2745999230722327,9.625033078503265 L 1.2767965349753443,9.846842072353795 L 1.276797145127209,9.846908085004936 L 1.2787008754224947,10.068717076395039 L 1.2787013984275875,10.068783091290369 L 1.2803122471239385,10.290592080540202 L 1.2803126829740534,10.290658097334582 L 1.281630650078991,10.512467084764117 L 1.2816309987672903,10.512533103112355 L 1.2826560842869705,10.73434208904184 L 1.2826563458079827,10.734408108598705 L 1.2833885497471906,10.956217093347801 L 1.2833887240968123,10.956283113768034 L 1.2838280464589686,11.178092097657013 L 1.2838281336344637,11.178158118595324 L 1.283974574421621,11.399967101944602 L 1.283974574421621,11.400033123055698 L 1.283828133634464,11.621842106184728 L 1.2838280464589684,11.621908127123302 L 1.2833887240968131,11.843717110352708 L 1.2833885497471895,11.843783130773463 L 1.282656345807984,12.065592114423493 L 1.282656084286967,12.065658133981144 L 1.2816309987672942,12.287467118371417 L 1.2816306500789867,12.2875331367207 L 1.2803126829740596,12.509342122171512 L 1.2803122471239317,12.5094081389672 L 1.278701398427596,12.731217125798652 L 1.2787008754224847,12.731283140695552 L 1.2767971451272198,12.953092129227636 L 1.2767965349753294,12.953158141880607 L 1.274599923072247,13.174967132433286 L 1.274599225783148,13.175033142497249 L 1.2721097322619983,13.396842135390012 L 1.272108947846628,13.39690814251995 L 1.2693265726957859,13.61871713807313 L 1.2693257011664465,13.618783141924107 L 1.2662504443729299,13.8405921404571 L 1.266249485743289,13.840658140684262 L 1.262881347292746,14.062467142516871 L 1.2628803015778358,14.062533138775464 L 1.259219281454557,14.284342144226935 L 1.2592181486707736,14.284408136172306 L 1.2552642468576745,14.506217145562466 L 1.2552630270227767,14.506283132850072 L 1.2510162435014247,14.728092146497772 L 1.2510149366345344,14.728158128783194 L 1.2464752713851177,14.949967147008097 L 1.2464738775067177,14.950033123947048 L 1.2416413305080767,15.17184214706799 L 1.2416398496400105,15.17190811831632 L 1.236514420869631,15.393717146651806 L 1.2365128530351026,15.393783111865517 L 1.2310945424690856,15.615592145734993 L 1.2310928876926566,15.61565810457024 L 1.225381695305773,15.837467144291738 L 1.2253799536133634,15.837533096404847 L 1.2193758793790108,16.05934214229703 L 1.2193740507978967,16.0594080873445 L 1.2130770946881169,16.281217139725676 L 1.2130751792469299,16.281283077364186 L 1.2064853412324288,16.50309213655194 L 1.2064833389611547,16.503158066438374 L 1.1996006190112467,16.724967132751328 L 1.1995985299412235,16.72503305454276 L 1.1924229280239114,16.946842128297963 L 1.192420752187829,16.946908041651685 L 1.1849522682697513,17.16871712316651 L 1.1849500057016498,17.16878302774003 L 1.1771886397480746,17.39059211733216 L 1.177186290483342,17.39065801278322 L 1.1691320424582248,17.612467110769142 L 1.1691296065335963,17.612532996755714 L 1.1607824763995187,17.834342103452432 L 1.1607799538530752,17.834407979632743 L 1.152139941571293,18.05621709535652 L 1.1521373324424584,18.056282961389044 L 1.1432044379728696,18.278092086456244 L 1.143201742302411,18.278157941999726 L 1.1340284531728348,18.498705153454083 L 1.134041076341075,18.499935715849443 L 1.1352150156586485,18.499895105468436 L 1.2430481445079693,18.490776330685524 L 1.2431627745960567,18.49076676992122 L 1.351690170585012,18.48184069633101 L 1.351805901686394,18.48183131304544 L 1.4598439084398425,18.473198027514947 L 1.4599607545880071,18.473188828187826 L 1.5675093579711843,18.46484832414419 L 1.5676273333986175,18.46483931544321 L 1.6746865190813558,18.4567915861225 L 1.674805638221937,18.45678277490879 L 1.7813753916617636,18.449027813351606 L 1.7814956691531159,18.449019206685293 L 1.8875759756165502,18.441557005729344 L 1.8876974263023678,18.44154861087536 L 1.9932882708367907,18.434379163151473 L 1.9934109097691757,18.434370987585442 L 2.0985122772165368,18.427494285510416 L 2.098636119658282,18.427486336924776 L 2.203247994651195,18.420902372695323 L 2.20337305607805,18.420894659005597 L 2.3074954230317783,18.414603424592347 L 2.3076217191346933,18.414595953943596 L 2.41125456224822,18.408597441084332 L 2.411382108935541,18.4085902218578 L 2.514525412192915,18.40288442205053 L 2.514654225592537,18.40287746287048 L 2.617307972752312,18.39746436736698 L 2.617438069213793,18.39745767710772 L 2.719602243816882,18.39233727690584 L 2.7197336399135166,18.392330864698963 L 2.8214082252677377,18.387503150536027 L 2.821540937798537,18.387497025777815 L 2.9227259169973365,18.382961988122016 L 2.922859962988999,18.38295616048114 L 3.0235553188870137,18.378713789524898 L 3.023690715595775,18.37870826895024 L 3.1238964308207113,18.374758554601563 L 3.1240331957341496,18.374753351330323 L 3.2237492526811846,18.371096283204775 L 3.223887403519953,18.371091407770777 L 3.3231137843530196,18.36772697518298 L 3.32325333907244,18.36772243842523 L 3.421990025713472,18.36465063038047 L 3.42213100250509,18.364646443451925 L 3.5203779766471284,18.361867248636788 L 3.520520393940128,18.361863423013403 L 3.61827763703116,18.359376829787077 L 3.6184215134936704,18.359373377277077 L 3.7156890067460617,18.357179373661634 L 3.7158343612863365,18.35717630641505 L 3.8126120856708665,18.355274880085904 L 3.8127589374383444,18.355272210604372 L 3.9090468736834874,18.353663348880353 L 3.909195242069697,18.353661090027177 L 4.00499337066202,18.3523447798603 L 4.005143275301329,18.352342944870788 L 4.100451576483561,18.351319172835797 L 4.100603037253762,18.351317775327875 L 4.195421491026659,18.350586527611462 L 4.195574528049386,18.350585581596572 L 4.289903114165125,18.35014684398639 L 4.290057747806062,18.350146363880672 L 4.383896445780925,18.35000012175392 L 4.384052696649831,18.35000012238971 L 4.477401485747583,18.350146360701576 L 4.477559374698068,18.35014685733917 L 4.570418233944128,18.350585560610853 L 4.570577782073245,18.350586568950604 L 4.66294669024791,18.35131772125709 L 4.663107918895451,18.351319257451806 L 4.7549868545372505,18.35234284240931 L 4.755149785284798,18.352344923076966 L 4.846538726690351,18.35366092383005 L 4.846703381360058,18.353663566066817 L 4.937602306587151,18.35527196527521 L 4.937768707240192,18.355275186668827 L 5.028177594107727,18.357175966493877 L 5.028345763042482,18.35717978513732 L 5.118264589133966,18.359372927228197 L 5.1184345488837915,18.359377361733713 L 5.2078632915467225,18.361862847213107 L 5.208035064877433,18.361867916726563 L 5.29697370123148,18.364645726176313 L 5.2971473111384215,18.3646514503919 L 5.38559581807423,18.36772156383803 L 5.385771287778932,18.367727963013298 L 5.473729641962143,18.371090359910788 L 5.473906994908587,18.371097454882037 L 5.561375172782438,18.374752114099227 L 5.561554432632817,18.37475992629722 L 5.648532410429429,18.378706826100156 L 5.648713601059482,18.378715377566223 L 5.735201354797489,18.38295449560213 L 5.735384500291302,18.38296380900459 L 5.821382005782286,18.387495122285287 L 5.82156713042655,18.387505220936212 L 5.9070743632837255,18.392328705821267 L 5.90726149156147,18.392339613693625 L 5.992278427207699,18.397455245873186 L 5.9924675837913775,18.397466987618316 L 6.07699419745884,18.402874742094998 L 6.077185407202834,18.40288734306041 L 6.16122167394877,18.40858719413179 L 6.161414961881195,18.408600680379337 L 6.244960856596043,18.41459260161962 L 6.245156247909902,18.414606999944 L 6.328211745316544,18.420890964184675 L 6.3284092653600865,18.420906302132224 L 6.41097434003918,18.427482281444153 L 6.4111740143055505,18.427498587332032 L 6.493248640692837,18.43436655300515 L 6.493450494808884,18.434383855940784 L 6.575034647214822,18.441543778465117 L 6.575238706929033,18.441562108365964 L 6.656332359548418,18.449013957411452 L 6.656538650718028,18.44903334502508 L 6.737141777645166,18.45677708942158 L 6.737350326222235,18.456797566345998 L 6.817462901460354,18.464833174062296 L 6.8176737334769415,18.464854772766564 L 6.897295730960099,18.47318221089029 L 6.897508872512359,18.473204964735377 L 6.97664026611741,18.48182419945158 L 6.9768557433486125,18.481848142711446 L 7.055496506916256,18.490759139281778 L 7.0557143459987115,18.490784307164677 L 7.133247276021745,18.49991435295082 L 7.134699096017955,18.500106911728984 L 7.203913505729768,18.51032062357324 L 7.274388155984013,18.520441492613582 L 7.345252375013995,18.53038536670082 L 7.416472832623853,18.54019217435606 L 7.488016017729581,18.549901815626427 L 7.559848418832478,18.559554188436568 L 7.63193652385127,18.56918918896986 L 7.70422182824643,18.578843374214536 L 7.776691192848711,18.588559331049517 L 7.776745777631069,18.588566679834376 L 7.84931586035934,18.59837753450626 L 7.84939988734931,18.598388966803338 L 7.9220622554376945,18.608337815977013 L 7.922175631059336,18.608353471452155 L 7.994896803986184,18.618480007037284 L 7.995039492469689,18.618500086264085 L 8.067785933081144,18.628843939147853 L 8.067957954038755,18.62886870397729 L 8.140696071060875,18.63946944339027 L 8.140897496872336,18.639499217841493 L 8.213593647639602,18.650396350216912 L 8.213824600605957,18.650431521861783 L 8.286445094051235,18.66166448921569 L 8.28670574326588,18.66170551102937 L 8.359216843209742,18.673313688887305 L 8.35950740108613,18.673361081535493 L 8.431875329919142,18.685383776440794 L 8.43219604830474,18.685438130970898 L 8.504386991107255,18.697914577605005 L 8.50473815690352,18.697976558503235 L 8.576718266120848,18.710945916464667 L 8.577100196319154,18.711016265033702 L 8.648835597053798,18.72451761532031 L 8.649248633087527,18.72459715332203 L 8.720705429141764,18.738669494582897 L 8.721149930445435,18.738759128078062 L 8.7922942112098,18.753441372707858 L 8.792770547867637,18.753542096008424 L 8.863568396180986,18.76887306617844 L 8.8640769405403,18.76898596580868 L 8.934494441657042,18.785004389551485 L 8.935035558776672,18.78513064809068 L 9.005038810555856,18.801875155575473 L 9.005612847358227,18.80201605522722 L 9.07516797182364,18.819525175400155 L 9.075775244821223,18.819682101101865 L 9.144848401205284,18.837994258892525 L 9.14548918268053,18.838168700742553 L 9.21404658206825,18.857322215078785 L 9.214721084601768,18.857515769819237 L 9.282729006274494,18.877548852734936 L 9.283437365541188,18.877763223985635 L 9.350862175077072,18.898713981146273 L 9.351604430867273,18.89895097804133 L 9.418412600016348,18.920857411057447 L 9.419188675489268,18.921118944892033 L 9.485346803790145,18.944018955835414 L 9.486156483034971,18.944307034290045 L 9.551631321049967,18.968238432861085 L 9.552474225114889,18.968555151337092 L 9.617232699074506,18.993555665162297 L 9.61810826073016,18.993903194740614 L 9.682117498260912,19.020010483292836 L 9.683024935890543,19.02039105482445 L 9.746252292356113,19.047642727447485 L 9.747190583510406,19.048058611304704 L 9.809603668354725,19.076492249792384 L 9.810571523671614,19.07694573086368 L 9.872138225972467,19.10659891696662 L 9.873134064335218,19.107092264571374 L 9.933822576606197,19.13800261268886 L 9.934844502588442,19.138538045230177 L 9.994623341698592,19.170743240378346 L 9.995669126509501,19.17132288474755 L 10.054507150430538,19.204860725668155 L 10.055574217711591,19.205486571666672 L 10.113440636693591,19.240395018664675 L 10.114526054610081,19.241068869016605 L 10.171390435318287,19.27738609577815 L 10.172490916412254,19.27810951266165 L 10.228323177586873,19.315873960936386 L 10.229435087791416,19.3166482103491 L 10.284205486105025,19.355898645982382 L 10.285324864142382,19.35672464165181 L 10.339003969174488,19.39750021006861 L 10.340126557257951,19.39837845898989 L 10.392685214871909,19.440718737886716 L 10.393806501199082,19.441649289879017 L 10.445215785102986,19.485594336621112 L 10.446331058073572,19.486576740496332 L 10.496562209951994,19.532167131584 L 10.497666623390725,19.533200400575264 L 10.546690982682396,19.580477260579602 L 10.547779630637914,19.581559849547244 L 10.595568555750082,19.630564867146173 L 10.596636554728704,19.6316946637429 L 10.643161338162741,19.68247009292638 L 10.644203914009303,19.683644424359713 L 10.689435694461622,19.73623306951621 L 10.690448270587167,19.737448725816183 L 10.734357945502806,19.79189391021235 L 10.735336228845275,19.79314718404317 L 10.77789437109815,19.849492702124053 L 10.77883443213501,19.850779444237872 L 10.820011214437782,19.909069499113343 L 10.82090955777303,19.91038518761655 L 10.860674688084046,19.970664315988923 L 10.861528310599587,19.972004136763804 L 10.899850981204656,20.03431712429214 L 10.900657415461472,20.035676059269854 L 10.937506267625338,20.100067849900054 L 10.938263609059007,20.101440769475833 L 10.973606714232277,20.167956372535212 L 10.974313631629498,20.169338128287404 L 11.008118489248027,20.23802252713021 L 11.008774218926996,20.239408041153286 L 11.041007769944352,20.310306106871884 L 11.041612094909581,20.311690454431535 L 11.071971767948765,20.384204406509447 L 11.072564796535495,20.38544320485333 L 11.073606487290819,20.38490910194728 L 12.803584042827598,19.38610609456611 L 12.804490297178152,19.3855258297676 L 12.804505723467557,19.385499607032585 L 12.804927100362825,19.38416938996925 L 12.823043081010157,19.313377135392685 L 12.82338002981043,19.312127955117397 L 12.843118867190768,19.242543004536152 L 12.843500157758875,19.2412641089314 L 12.86465854566579,19.17360734976651 L 12.865086647159382,19.172301693275696 L 12.887654940189478,19.106537549364216 L 12.888132073450059,19.105208603970045 L 12.912100913102078,19.041300982605026 L 12.91262897240644,19.03995273324861 L 12.937989366547553,18.97786503774542 L 12.938569839498856,18.976501961567003 L 12.965313242072625,18.916197120934545 L 12.965947131006473,18.914824148613608 L 12.994065518314024,18.856264665670682 L 12.994753267151832,18.85488712394629 L 13.024239206580441,18.798035142294236 L 13.024980637404198,18.796658677787487 L 13.055827344277391,18.741476066913883 L 13.056621607941088,18.740106552594757 L 13.088822986300114,18.686555009111455 L 13.089668531069334,18.685198436053966 L 13.123219194715167,18.63323959778129 L 13.124113756209074,18.631901956107235 L 13.141297535073802,18.607080867742624 L 13.144433835181983,18.603014016845012 L 13.147970764069417,18.599290337396237 L 13.151871006210241,18.595949115189484 L 13.156093413028644,18.593025600993883 L 13.160593437027112,18.59055063864968 L 13.165323601774187,18.58855033965765 L 13.170234002793256,18.587045807695908 L 13.18813135948565,18.582553271868008 L 13.188629121596161,18.582431033848223 L 13.264661165859764,18.564172142332122 L 13.265127327397723,18.564062553249855 L 13.342342133834185,18.54630002186905 L 13.342777568599766,18.546201898597076 L 13.421166964309876,18.528904495764323 L 13.421572558480197,18.52881676082706 L 13.501128362723064,18.51195315261909 L 13.501505006027461,18.511874827592848 L 13.582219038262258,18.495413584374162 L 13.582567616699176,18.495343783265152 L 13.664431703179552,18.479253386269548 L 13.664753093084352,18.47919130899196 L 13.74775907220001,18.46344015675394 L 13.74805413548712,18.463385082798684 L 13.832193861994513,18.447941497363157 L 13.832463442412795,18.44789277972164 L 13.917728790747898,18.43272501257068 L 13.917973711003919,18.43268207195736 L 14.004356577770832,18.417758309627427 L 14.004577637390666,18.417720629027855 L 14.092069943189042,18.40300899839002 L 14.092267917004001,18.402976117948338 L 14.180861607669422,18.388444691148845 L 14.18103724482543,18.38841620339847 L 14.270724292196592,18.374033002456326 L 14.27087831559972,18.374008547890117 L 14.361650717889429,18.35974154895925 L 14.361783824011958,18.35972081192985 L 14.453633605841988,18.34553794923883 L 14.453746464823856,18.345520654175967 L 14.546665677014543,18.331389823655204 L 14.54675893300437,18.33137573158411 L 14.640739652115277,18.317264794205837 L 14.64081392380351,18.317253699549212 L 14.735848251526466,18.3031304843894 L 14.735904132830324,18.30312221203455 L 14.831984195263091,18.28895451907692 L 14.929005175661022,18.274724328994505 L 14.98287750032357,18.26649900138492 L 14.983340578116417,18.266430514508137 L 15.03800855633313,18.258606723781007 L 15.038450645155606,18.258545466622092 L 15.094282570016428,18.25106304170974 L 15.094704409260023,18.25100833368603 L 15.151678660120924,18.2438656797151 L 15.152081647157853,18.24381681945825 L 15.210176725274959,18.237012249427412 L 15.210562141760986,18.23696862107867 L 15.26975665873271,18.230500368477795 L 15.270125681546114,18.230461430069166 L 15.330398348898397,18.224327659600267 L 15.33075205999588,18.22429293317054 L 15.392081679803756,18.21849174987894 L 15.392421075092381,18.218460813044956 L 15.45478653154047,18.2129902701154 L 15.455112528859939,18.21296274886681 L 15.518492780650352,18.207820854295825 L 15.518806226953668,18.207796416820887 L 15.58318030048048,18.202981139140633 L 15.58348197829442,18.202959490522982 L 15.648828961496978,18.1984687637238 L 15.649119594736497,18.198449641376634 L 15.715418631570795,18.19428136914949 L 15.71569889077471,18.194264538875647 L 15.782929176235525,18.190416598277015 L 15.783199683284177,18.190401850861505 L 15.851340458909863,18.186872095486887 L 15.851601791279322,18.18685924374341 L 15.920632341108485,18.183645506480246 L 15.920885035710123,18.18363438268576 L 15.990784682619076,18.180734478107762 L 15.991029239268203,18.18072493176941 L 16.061777341674603,18.178136658222122 L 16.062014226227088,18.17812855412956 L 16.133590175092145,18.175849695551815 L 16.1338198222839,18.175842912075012 L 16.206203038410344,18.173871239591836 L 16.206425854430442,18.173865667190622 L 16.279595786002915,18.172198940509585 L 16.279812150828093,18.172194480426107 L 16.353748271193787,18.170830449063025 L 16.353958540708813,18.17082701217266 L 16.428640346341147,18.16976341653024 L 16.42884485426698,18.16976092232989 L 16.50425186292931,18.16899549464774 L 16.50445092257846,18.168993870363668 L 16.58056267164865,18.16852433555686 L 16.580756577525307,18.168523515356643 L 16.657552622459132,18.168347591757126 L 16.65774165171939,18.168347516052425 L 16.73520156465533,18.168462916065323 L 16.73538597844146,18.168463530894144 L 16.813489346923845,18.168867961579696 L 16.81366939158501,18.168869218058266 L 16.892395817393705,18.169560381648555 L 16.89257172560406,18.169562235484303 L 16.971900823683196,18.170537829842647 L 16.97207281546748,18.170540240900934 L 17.051984212938986,18.17179795993082 L 17.052152496614262,18.171800891848992 L 17.13262583187578,18.173338425858557 L 17.13279060491745,18.173341845701795 L 17.213805526814483,18.175156881729094 L 17.213966976653644,18.175160759683223 L 17.295503143702003,18.1772509817864 L 17.29566144846061,18.17725529088337 L 17.377698528151257,18.1796183804005 L 17.37785385732085,18.17962309627295 L 17.46037152546386,18.182256732054224 L 17.46052404053304,18.182261832715863 L 17.543501980643487,18.185163691331073 L 17.543651835678975,18.18516915697998 L 17.6270697384331,18.18833691290523 L 17.62721708061839,18.188342725747756 L 17.711054643323163,18.19177405153178 L 17.711199613458884,18.191780195624737 L 17.795436539567632,18.19547276203825 L 17.795579272536873,18.195479223147522 L 17.88019527121209,18.199430699317503 L 17.880335896414003,18.199437464791455 L 17.965310682089722,18.203645518320183 L 17.965449323844158,18.203652576976275 L 18.050762615856257,18.208114874049567 L 18.050899393782142,18.208122216073004 L 18.13653091597941,18.212836421554954 L 18.13666594534918,18.212844038408093 L 18.222595425768446,18.217807815927575 L 18.222728817840743,18.217815700269192 L 18.308935988374216,18.223026712295546 L 18.309067850706825,18.223034857908992 L 18.395532446796068,18.228490765819544 L 18.395662883540975,18.228499167549035 L 18.48236464389943,18.234197631689597 L 18.482493756081553,18.234206285383973 L 18.569412422419095,18.240144965121353 L 18.56954030820046,18.240153867584663 L 18.656655624954567,18.246330421352123 L 18.656782379885055,18.246339570300496 L 18.744074093996666,18.25275165563924 L 18.744199811253033,18.25276104966365 L 18.831647671918994,18.259406323256428 L 18.83177244253303,18.25941596179088 L 18.919356200981788,18.266292079491038 L 18.919480114059073,18.26630196278584 L 19.00717952334444,18.273406579642273 L 19.007302666274583,18.273416708742143 L 19.095097481065462,18.280747479018608 L 19.095219939724963,18.28075785574532 L 19.183089916101206,18.28831243293519 L 19.18321177504986,18.28832305987456 L 19.271136670316096,18.296099096712368 L 19.271258012987843,18.29610997720543 L 19.359217585478277,18.304105125673065 L 19.359338494367456,18.304116263811277 L 19.447312503270275,18.31232817514156 L 19.44743306011404,18.312339575766 L 19.535401265277457,18.320765900440367 L 19.53552155123525,18.32077756914477 L 19.623463713002998,18.329415956889566 L 19.623583808833825,18.32942790002726 L 19.71147968785631,18.338275999803695 L 19.71159967409469,18.338288224498378 L 19.79942903116604,18.347343684491044 L 19.799548988297314,18.34735619865149 L 19.886129081200764,18.356493974176548 L 19.887339844357307,18.35656183540657 L 19.88843924867891,18.356050110182114 L 21.133545432878616,17.70022604950959 L 21.134394667236837,17.699757471882787 L 22.86497555188664,16.7006061322758 L 22.865267068737364,16.700418422586463 L 22.864952828146237,16.70056494853158 L 21.632843725668295,17.34954316824706 L 21.62838845249189,17.35161690547131 L 21.623751127173737,17.35324326922068 L 21.61897654598918,17.35440654892209 L 21.614110831096728,17.355095507365675 L 21.609200985000857,17.355303489255544 L 21.604294436510745,17.355028485499524 L 21.53159975501792,17.34735619434031 L 21.443650399959584,17.338288216173996 L 21.355634534655472,17.329427891897645 L 21.267572276889297,17.320777561198174 L 21.17948378546683,17.312339567990843 L 21.091389219293866,17.304116256197887 L 21.003308737352196,17.296109969744244 L 20.915262498718658,17.288323052557367 L 20.82727066256074,17.280757848564708 L 20.73935338813656,17.273416701691623 L 20.65153083479975,17.266301955859618 L 20.563823162001402,17.259415954984195 L 20.476250529292965,17.252761042972715 L 20.388833096330394,17.246339563722213 L 20.30159102287533,17.2401538611168 L 20.214544468808885,17.234206279025848 L 20.1277135941246,17.22849916130044 L 20.041118558945243,17.223034851771274 L 19.954779523517015,17.217815694244788 L 19.86871664823177,17.212844032500783 L 19.782950093625846,17.208122210288206 L 19.697500020385387,17.203652571321026 L 19.61238658936768,17.199437459274566 L 19.527629961601217,17.195479217780136 L 19.443250298301717,17.191780190420058 L 19.359267760886876,17.18834272072192 L 19.27570251098575,17.18516915215196 L 19.192574710462072,17.182261828108228 L 19.10990452141854,17.179623091912177 L 19.02771210622997,17.177255286800353 L 18.94601762755504,17.175160755914124 L 18.8648412483617,17.173341842288746 L 18.784203131950036,17.17180088884087 L 18.704123441986297,17.17054023835467 L 18.62462234252274,17.169562233465946 L 18.545719998042948,17.16886921664455 L 18.467436573487674,17.168463530174172 L 18.38979223430104,17.16834751612972 L 18.31280714647765,17.168523516351584 L 18.236501476607554,17.16899387241632 L 18.160895391933554,17.169760925603395 L 18.086009060409854,17.17082701685727 L 18.011862650772734,17.172194486744 L 17.93847633261389,17.173865675401643 L 17.865870276460612,17.17584292248348 L 17.79406465387267,17.17812856709259 L 17.72307963753953,17.180724947706842 L 17.652935401398267,17.18363440209214 L 17.5836521207577,17.18685926720237 L 17.51524997243858,17.190401879063604 L 17.447749134931286,17.194264572639625 L 17.38116978856899,17.19844968167582 L 17.315532115722505,17.202959538517145 L 17.250856301015414,17.207796473895833 L 17.187162531562375,17.21296281668315 L 17.124470997235935,17.21846089359823 L 17.062801890962774,17.224293028866107 L 17.002175409046153,17.230461543815583 L 16.942611751527625,17.236968756404462 L 16.88413112258101,17.24381698065872 L 16.82675373094145,17.251008526008533 L 16.770499790372043,17.258545696500462 L 16.715389517512445,17.266430790240623 L 16.6613451095911,17.27468105634926 L 16.661055589970136,17.274724386674343 L 16.56407305992889,17.288948922242238 L 16.467954928432906,17.30312221380341 L 16.372864708521575,17.3172537029577 L 16.278809702581867,17.331375737316645 L 16.185797214479795,17.345520663037668 L 16.093834548378986,17.35972082487264 L 16.002929008671526,17.374008566041283 L 15.913087899876096,17.38841622809813 L 15.824318526513268,17.40297615079145 L 15.73662819295914,17.417720671914235 L 15.650024203264053,17.432682127150002 L 15.564513860931937,17.447892849915185 L 15.480104468657185,17.463385171200663 L 15.396803328019804,17.479191419414647 L 15.314617739114922,17.495343920235083 L 15.233555000128089,17.51187499647432 L 15.153622406838183,17.52881696796616 L 15.074827252041471,17.546202151485087 L 14.997176824896744,17.564062860708447 L 14.920554627932141,17.582461128420405 L 14.920306451763345,17.582522074327677 L 14.845208299578264,17.601372966395108 L 14.844943194796024,17.601441056961423 L 14.77102765157171,17.620857756475374 L 14.770745913792732,17.620933525620227 L 14.698020667241384,17.640947656446578 L 14.697721913912888,17.641031872524174 L 14.626194622480831,17.661674995649154 L 14.625878504655358,17.661768490953566 L 14.555556788368722,17.683072102593524 L 14.555223000493093,17.68317577488976 L 14.486114430493657,17.705171305388557 L 14.485762721542217,17.705286118536392 L 14.417874808260736,17.728004932297967 L 14.417504994245608,17.72813191570279 L 14.35084517419019,17.751605312446483 L 14.350457152051945,17.751745559029604 L 14.285032773245216,17.776004776690538 L 14.284626536055084,17.77615943904118 L 14.22044484221309,17.801235658672287 L 14.2200204955641,17.80140594300792 L 14.157088609197437,17.827330296062314 L 14.156646388546166,17.827517453614952 L 14.094971293267877,17.854321031995447 L 14.094511581889927,17.854526347437737 L 14.0341001043362,17.882240216687517 L 14.033623451422836,17.88246499324015 L 13.974482243328822,17.91112020920814 L 13.973989381610071,17.9113657501276 L 13.916124902731443,17.940993379364485 L 13.915616764857358,17.941260965609942 L 13.859035267584257,17.971892109626857 L 13.858513000350255,17.972182973649534 L 13.803026911146793,18.00395967443536 L 12.494530968903025,18.759419805882345 L 12.490032006972763,18.761722344042038 L 12.485323587334634,18.763558950951005 L 12.480453815611543,18.764910862113684 L 12.475472445950352,18.765764265140014 L 12.470430372686932,18.766110440865752 L 12.465379110361983,18.765945852435603 L 12.460370267400261,18.765272181439055 L 12.455455018830595,18.764096310729673 L 12.450683583433884,18.762430254103442 L 12.44610471066102,18.760291033554573 L 12.441765182562856,18.757700505362866 L 12.437709335820982,18.754685136789504 L 12.433978608762677,18.751275735662734 L 12.43061111798817,18.747507135616246 L 12.422250727495433,18.737140786904362 L 12.42174447111932,18.736532996796047 L 12.375998672695339,18.68334672960377 L 12.375477416913625,18.682759600090563 L 12.328424738422985,18.631408045752178 L 12.327890771205432,18.630843181592912 L 12.279562416165973,18.581285007106313 L 12.27901812426842,18.580743744524153 L 12.229445219286806,18.532937892031917 L 12.228893044148782,18.532421287083206 L 12.178106682859962,18.48632698132886 L 12.177549077172891,18.485835806520296 L 12.125580362668817,18.441412554247865 L 12.125019749267437,18.44094730295128 L 12.071899833483,18.398154884891277 L 12.07133856795134,18.397715782735293 L 12.017098686771272,18.35651423914297 L 12.016539024834241,18.35610126129197 L 11.961210528025108,18.316450872221242 L 11.960654598440824,18.316063765283662 L 11.90426897386988,18.277925026895687 L 11.903718757183222,18.27756333413886 L 11.846307649131084,18.240896932363373 L 11.8457649623203,18.240560020937018 L 11.787360183997189,18.205326803738 L 11.786826670770262,18.20501389271153 L 11.727460211390959,18.171174842077292 L 11.72693733767577,18.17088503025209 L 11.666641364633566,18.1384012348593 L 11.666130418646425,18.138133527497782 L 11.604937275450157,18.106966156807356 L 11.60443937164421,18.106719490622112 L 11.54238157233523,18.076829770963982 L 11.541897658498305,18.0766030369043 L 11.479007879280694,18.047952229925215 L 11.478538746058874,18.047744293472924 L 11.414849814844432,18.020293677154463 L 11.414396107013735,18.020103395995303 L 11.349940991525271,17.993814248309146 L 11.34950322040993,17.993640487375085 L 11.284315015406584,17.96847407252963 L 11.283893571917565,17.9683157165018 L 11.218005486026218,17.944233273652717 L 11.21760065387948,17.944089237085198 L 11.15104599642694,17.92105197132301 L 11.150657965197142,17.920921206598432 L 11.083470133347175,17.898890281987477 L 11.083099011085334,17.898771785338607 L 11.015311477517864,17.8777083197676 L 11.014957302734505,17.877601135610007 L 10.946603604029203,17.85746619720757 L 10.946266356913899,17.857369421028643 L 10.877380082741482,17.83812402590405 L 10.877059695536719,17.8380368059408 L 10.807674478722346,17.819641917026512 L 10.807370845210487,17.819563454947513 L 10.737520352684768,17.80197998173585 L 10.737233336789997,17.801909532525187 L 10.666951261414624,17.785098331512952 L 10.666680704943799,17.78503520273078 L 10.596000758190659,17.768957078411464 L 10.595746487736237,17.768900628979353 L 10.524820568493386,17.753541925599265 L 10.453199265101265,17.73875883154189 L 10.381298167495046,17.724596908553664 L 10.309149912780425,17.71101606439905 L 10.236788038680947,17.69797639538286 L 10.16424607956205,17.68543799963599 L 10.09155756682513,17.67336097703602 L 10.018756029240523,17.66170542909014 L 9.945874993247084,17.65043145879091 L 9.872947983184634,17.63949917044382 L 9.80000852151435,17.628868669478553 L 9.727090128979237,17.618500062238574 L 9.654226324747679,17.608353455756774 L 9.581450626524761,17.59838895751516 L 9.508796550647567,17.588566675190414 L 9.43629761215677,17.578846716383296 L 9.363992145585977,17.569189832172686 L 9.291934121841551,17.559558864928455 L 9.220132130542032,17.54991063474138 L 9.220066778128338,17.549901809268075 L 9.148619755091977,17.54020531375662 L 9.148523550843628,17.540192162165983 L 9.077430575441483,17.53040307517325 L 9.077303036012623,17.53038534636909 L 9.006598172284257,17.52046409420384 L 9.006438743562168,17.52044146145016 L 8.936156126932115,17.510348548486387 L 8.935964182929455,17.510320604335142 L 8.866387634259178,17.500053452997783 L 8.865661763189642,17.4999571787719 L 8.787765003539661,17.49078428949784 L 8.708906254847017,17.48184810982122 L 8.62955939216538,17.47320493400704 L 8.549724261049525,17.464854744090008 L 8.469400861482152,17.456797539615962 L 8.388589193444352,17.449033320141787 L 8.307289256901127,17.441562085233834 L 8.225501051816998,17.43438383446924 L 8.143224578144046,17.42749856743468 L 8.060459835830764,17.420906283726946 L 7.977206824817551,17.41460698295242 L 7.893465545039918,17.40860066472715 L 7.8092359964290745,17.402887328676677 L 7.724518178908598,17.397466974435662 L 7.639312092397609,17.392339601647905 L 7.553617736814858,17.38750520996642 L 7.467435112070052,17.382963799052707 L 7.380764218073314,17.378715368577147 L 7.293605054726949,17.37475991821836 L 7.2059576219357675,17.37109744766352 L 7.117821919597837,17.36772795660776 L 7.02919794760912,17.36465144475421 L 6.940085705863655,17.361867911813807 L 6.850485194256534,17.3593773575052 L 6.760396412674418,17.357179781554308 L 6.669819361007349,17.355275183694502 L 6.5787540391456645,17.353663563666267 L 6.487200446970493,17.352344921216925 L 6.395158584369574,17.35131925610073 L 6.302628451228605,17.350586568078537 L 6.2096100474273355,17.350146856917632 L 6.116103372852142,17.350000122391673 L 6.0221084273814,17.350146364280473 L 5.927625210900811,17.350585582369842 L 5.832653723288721,17.351317776451477 L 5.737193964430582,17.352342946322754 L 5.641245934204013,17.353661091786687 L 5.544809632492176,17.355272212651663 L 5.447885059179401,17.35717630873132 L 5.350472214143943,17.359373379844573 L 5.252571097270303,17.361863425815237 L 5.1541817084405706,17.36464644647208 L 5.055304047539175,17.36772244164856 L 4.95593811445016,17.3710914111828 L 4.856083909055165,17.374753354917537 L 4.7557414312435995,17.378708272699633 L 4.654910680897223,17.38295616438054 L 4.5535916579081075,17.38749702981547 L 4.4517843621574755,17.39233086886418 L 4.349488793539694,17.39745768138978 L 4.246704951939784,17.40287746725972 L 4.1434328372488824,17.408590226344888 L 4.039672449361942,17.414595958519627 L 3.9354237881642935,17.4208946636624 L 3.8306868535549525,17.427486341654333 L 3.7254616454265963,17.43437099238034 L 3.619748163672207,17.4415486157286 L 3.5135464081906616,17.449019211590112 L 3.4068563788797808,17.456782779859086 L 3.2996780756370288,17.464839320432773 L 3.1920114983603765,17.47318883321139 L 3.0838566469545015,17.4818313180975 L 2.9752134890745787,17.490766777648858 L 2.9225527539670377,17.495219834749225 L 2.9175674147238926,17.495391681771018 L 2.912589762511486,17.49506592538894 L 2.907669341174114,17.4942458079395 L 2.9028551249225516,17.492939492261215 L 2.8981950308812165,17.491159980447808 L 2.893735442156791,17.488924984435034 L 2.889520746175306,17.486256749709266 L 2.8855928928827512,17.48318183389248 L 2.881990977206542,17.47973084240747 L 2.8787508499337195,17.475938123854235 L 2.875904760878906,17.471841428129604 L 2.87348103789366,17.46748153069286 L 2.8715038049121335,17.462901826717175 L 2.869992741839388,17.458147899166367 L 2.868962888672275,17.453267065096014 L 2.8684244958025014,17.448307904694705 L 2.868382921991863,17.443319777753015 L 2.875252550074471,17.278157937114756 L 2.8841881403984573,17.056282951616428 L 2.8928307617962843,16.83440796985714 L 2.9011804144640156,16.61253298697692 L 2.909237098400939,16.390658003001906 L 2.917000813606427,16.168783017955924 L 2.9244715600797733,15.946908031864977 L 2.9316493378203328,15.725033044753266 L 2.9385341468274038,15.503158056646708 L 2.9451259871003193,15.281283067570138 L 2.9514248586384206,15.059408077548039 L 2.9574307614410027,14.837533086606468 L 2.9631436955074175,14.615658094769474 L 2.9685636608369577,14.393783102063278 L 2.973690657428968,14.171908108512042 L 2.9785246852827676,13.950033114140966 L 2.983065744397668,13.728158118975497 L 2.9873138347729875,13.50628312304091 L 2.991268956408053,13.28440812636189 L 2.9949311093021835,13.062533128963656 L 2.9983002934546996,12.84065813087116 L 3.0013765088649156,12.618783132109801 L 3.0041597555321475,12.396908132704848 L 3.006650033455719,12.17503313268106 L 3.008847342634946,11.953158132063601 L 3.010751683069142,11.731283130878126 L 3.0123630547576328,11.509408129148756 L 3.013681457699725,11.287533126901993 L 3.014706891894742,11.065658124162066 L 3.0154393573419997,10.843783120954102 L 3.015878854040813,10.621908117303727 L 3.0160253819905,10.400033113235814 L 3.0158789411903766,10.178158108775882 L 3.0154395316397586,9.956283103948426 L 3.014707153337964,9.734408098779358 L 3.013681806284308,9.51253309329333 L 3.0123634904781094,9.290658087516116 L 3.010752205918682,9.06878308147239 L 3.0088479526053438,8.846908075187343 L 3.0066507305374155,8.625033068686774 L 3.004160539714204,8.403158061994823 L 3.001377380135042,8.181283055138 L 2.998301251799239,7.959408048140837 L 2.994932154706109,7.737533041028372 L 2.9912700888549755,7.515658033826111 L 2.9873150542451543,7.293783026559094 L 2.983067050875971,7.071908019252977 L 2.9785260787467402,6.850033011932697 L 2.9736921378567818,6.628158004623486 L 2.9685652282054185,6.406282997350722 L 2.963145349791967,6.184407990139452 L 2.957432502615755,5.962532983015249 L 2.951426686676093,5.740657976002859 L 2.945127901972321,5.518782969128248 L 2.938536148503754,5.296907962416352 L 2.931651426269701,5.075032955891987 L 2.924473735269519,4.853157949581475 L 2.9170030755024916,4.631282943508787 L 2.9092394469679808,4.409407937700329 L 2.901182849665303,4.187532932181075 L 2.8928332835937765,3.9656579269760788 L 2.8841907487527343,3.7437829221107592 L 2.8752552398181126,3.521907785426734 L 2.874927638404262,3.5140304437927252 L 2.874956469775405,3.509270272625855 L 2.875437849625437,3.5045344163964236 L 2.8763674147156935,3.499865801020443 L 2.8777367394455937,3.495306742941196 L 2.879533412222493,3.4908985655719635 L 2.881741147960655,3.486681224739602 L 2.8843399356896704,3.4826929465239576 L 2.8873062199343753,3.47896988077575 L 2.8906131142222526,3.475545773453444 L 2.8942306447830717,3.4724516607490643 L 2.898126022231872,3.469715587775395 L 2.902263938772743,3.4673623543643948 L 2.9066068882295486,3.4654132902809187 L 2.9111155060028158,3.4638860618892093 L 2.9157489258714238,3.4627945120245425 L 2.9204651504050245,3.4621485345214325 L 2.9616801297358224,3.4584913899427483 L 2.9618057018203343,3.458480407020802 L 3.0344345948053717,3.452220299981862 L 3.034562438484969,3.4522094459715436 L 3.107134015015253,3.446141845597115 L 3.1072641296766195,3.4461311379454442 L 3.1797797970138304,3.4402588394612197 L 3.179912181582808,3.4402482959415455 L 3.2523733474571763,3.4345740942493905 L 3.2525080003855864,3.43456373295609 L 3.3249160730069254,3.429090422639745 L 3.3250529922593266,3.4290802619824783 L 3.3974093803325203,3.4238106373133466 L 3.3975485633729448,3.423800696010867 L 3.4698546761088567,3.4187375509546225 L 3.4699961198875138,3.41872784802812 L 3.5422533670179663,3.413873976251461 L 3.5423970679579666,3.413864531017439 L 3.614606859749166,3.409222725895451 L 3.6147528137332525,3.4092135579581284 L 3.686916560997032,3.4047866125822535 L 3.6870647633543685,3.4047777418254723 L 3.7591838774636956,3.4005684490116943 L 3.7593343229567107,3.400559895590341 L 3.8314102158577557,3.3965710478880875 L 3.831562898669078,3.396562832219009 L 3.9035969828939536,3.392797221920496 L 3.903751896613467,3.3927893646729093 L 3.9757455852934873,3.3892497838229714 L 3.975902722905506,3.389242305908359 L 4.047857429784063,3.3859315463147985 L 4.048016783654685,3.385924468876288 L 4.119933923099604,3.3828453221207755 L 4.120095484964236,3.3828386665219967 L 4.191976471979896,3.3799939239714787 L 4.1921402329310045,3.3799877117848935 L 4.263986483171413,3.377380164603491 L 4.2641524336465055,3.377374417598201 L 4.3359653634255455,3.37500685675973 L 4.336133493195427,3.3750015968887497 L 4.407914519500228,3.372876813189642 L 4.408084817657548,3.37287206257665 L 4.479835358158634,3.370992846649511 L 4.480007813106765,3.37098862757507 L 4.551729286169392,3.3693577699027064 L 4.551903885611657,3.369354104789958 L 4.623597710306336,3.3679743957199455 L 4.623774441235621,3.367971307119787 L 4.695442037348226,3.3668455368795525 L 4.695620886037016,3.3668430474552933 L 4.767263674078925,3.365974006167712 L 4.767444626069769,3.3659721386792207 L 4.839064027286373,3.3653626163787296 L 4.8392470673828365,3.3653613936660753 L 4.910844503763149,3.36501418031527 L 4.911029616021277,3.3650136252818723 L 4.9826065103059385,3.3649315107886086 L 4.982793678026239,3.364931646383899 L 5.054351453714786,3.365117420618865 L 5.0545406594348,3.3651182698204773 L 5.126080740793464,3.3655747226352366 L 5.126271966280928,3.3655763084307346 L 5.197795778348786,3.3663062296762205 L 5.197989004595422,3.366308575044383 L 5.269497973190704,3.367314754589836 L 5.269693180406675,3.36731788248151 L 5.3411887321311555,3.368603110233825 L 5.341385899740208,3.368607043552367 L 5.412869461984386,3.3701741094758537 L 5.4130685686197175,3.3701788710571776 L 5.484541569566315,3.3720305651937004 L 5.484742593067191,3.3720361777859544 L 5.556206461694625,3.3741752902754443 L 5.556409379103765,3.374181776518339 L 5.627865545187294,3.3766110976196035 L 5.628070332749074,3.37661848002341 L 5.6995202268631155,3.379340800135311 L 5.6997268600226,3.3793491010595615 L 5.771171913541472,3.382367210742467 L 5.7713803669443005,3.3823764523743844 L 5.842822012040353,3.3856931423718044 L 5.8430322595335165,3.385703346704479 L 5.914471929178227,3.389321407965095 L 5.9146839438117365,3.3893325967754553 L 5.986123071771069,3.393254820475132 L 5.9863368258005725,3.3932670153017246 L 6.057776846634239,3.3974961928659244 L 6.057992311524566,3.3975094149865486 L 6.129434660580042,3.402048338112654 L 6.129651807009734,3.402062608521875 L 6.201097920418772,3.406914069201811 L 6.201316718285584,3.4069294085883968 L 6.272768032957024,3.4120961991311445 L 6.272988451384436,3.412112627855454 L 6.344446404997754,3.417597540909704 L 6.344668412342497,3.41761507898107 L 6.416134443340048,3.423420907557853 L 6.4163580072006425,3.423439574612001 L 6.487833554778139,3.429569112107203 L 6.488058642004491,3.429588927383737 L 6.559545146100666,3.4360449676005387 L 6.559771722804689,3.4360659499205424 L 6.63127062409083,3.442851287091803 L 6.631498655658122,3.442873454835596 L 6.70301139552555,3.4499908836459805 L 6.70324084662812,3.4500142547310704 L 6.774768867174916,3.457466570338976 L 6.774999701784967,3.457491162198253 L 6.8465444458013875,3.4652811602574514 L 6.846776627206144,3.465306989817662 L 6.918339538159849,3.473437466498725 L 6.918573028977432,3.4734645501592745 L 6.990155550996743,3.481938302170559 L 6.990390313193082,3.481966655782684 L 7.061993891049422,3.490786480390936 L 7.062229885956197,3.4908161192372913 L 7.133654344954719,3.499959005348503 L 7.133860056261229,3.499979985950706 L 7.3262748407007185,3.5236609378900785 L 7.326815202077106,3.5237304320623735 L 7.512587163661455,3.548651562257786 L 7.513159543584942,3.5487317168331804 L 7.6927620268549335,3.5749420460102583 L 7.693366682118496,3.5750340668955296 L 7.866900555029162,3.602530705687806 L 7.867539310625954,3.6026361608196145 L 8.03510538204979,3.6314160331162033 L 8.035780116569377,3.6315366874128228 L 8.197479148631537,3.661596509644159 L 8.198191779812019,3.6617343463413197 L 8.35412450480583,3.693070605637728 L 8.354876970036186,3.693227848576498 L 8.505144112916714,3.7258367802090215 L 8.5059383436264,3.726015916566553 L 8.650640651211434,3.759893481296824 L 8.651478539959266,3.7600972840031504 L 8.790716818079144,3.7952391462497723 L 8.791600177053136,3.795470695016863 L 8.92547533697216,3.831872203101556 L 8.926405846560243,3.8321349025955764 L 9.055018962003274,3.8697910727679568 L 9.055998108124689,3.870088665977244 L 9.179450484156522,3.9089941724366932 L 9.18047948319909,3.909330746729469 L 9.298872737960254,3.94947992045407 L 9.299952448505124,3.949859903197816 L 9.413388608353847,3.9912467430300356 L 9.414519429451607,3.991674882995729 L 9.523101037324974,4.034293083070792 L 9.524282793985982,4.034774413235632 L 9.628113029704265,4.078617411387402 L 9.629344847547207,4.079157188282624 L 9.728527657291606,4.124218240400004 L 9.729807830001864,4.124821854973465 L 9.824448060265977,4.171094140234473 L 9.82577391564757,4.171766995503625 L 9.915977444646117,4.219243756777205 L 9.917345217525925,4.21999110856394 L 10.003219074468799,4.268665830804087 L 10.004623797333277,4.269492589802563 L 10.086276257410702,4.319359216750151 L 10.087711682079005,4.320269713269266 L 10.165252322884259,4.371322899093127 L 10.166710888246255,4.372320616101218 L 10.240250592248028,4.424556003782537 L 10.241723453490492,4.42564328920765 L 10.311374341730579,4.479057801809512 L 10.312851474870772,4.480235576948106 L 10.378726759919358,4.534827702053762 L 10.380197151313912,4.536095188585465 L 10.442410903072881,4.5918652311371675 L 10.44386282665894,4.593219723481889 L 10.50252965280156,4.650169999248619 L 10.503951028499193,4.651606710528623 L 10.559185681492714,4.709741652743464 L 10.560564497491312,4.711253660273507 L 10.61248143087207,4.770579816520471 L 10.613806202134828,4.772158125933701 L 10.662519108075466,4.832684031323188 L 10.663779335402708,4.834317767440129 L 10.709400701551496,4.896053692669644 L 10.710587291905478,4.897730411386991 L 10.753228016338594,4.960687998610259 L 10.754333627107231,4.962394099689486 L 10.794102725318826,5.026585912689562 L 10.79512200287115,5.028307121039354 L 10.83212643061324,5.093746146421276 L 10.833056125653398,5.095468021680281 L 10.867400727923938,5.1621671627178545 L 10.868239684525843,5.163875595083727 L 10.900027266615195,5.231847198678116 L 10.900776295734445,5.233528853084489 L 10.930107799582093,5.302784303610044 L 10.930769458910092,5.304426983317004 L 10.95774421907323,5.374976386619552 L 10.958322527805093,5.3765692989812 L 10.983038577055334,5.448421267699542 L 10.983538696084379,5.449955186987029 L 11.006093090907994,5.523116726893017 L 11.00652099673635,5.524584059612525 L 11.027010136840822,5.599060547421384 L 11.02737231235362,5.6004553133158765 L 11.045892234297865,5.676250550285336 L 11.04619539294723,5.677568296699431 L 11.06284202479566,5.754684619384934 L 11.063092877988334,5.755922288133045 L 11.077962248309714,5.834360717447291 L 11.078167319832295,5.835516482413511 L 11.091355719692539,5.915276893892606 L 11.091521206360296,5.916349985127051 L 11.103125306867565,5.9974312862033345 L 11.103256981395845,5.998421813044958 L 11.113373911845445,6.080822116487148 L 11.1134770621044,6.081730898857711 L 11.122204455029047,6.165447684811692 L 11.122283853097699,6.166276098709466 L 11.129719862846413,6.251306360654698 L 11.129779757327972,6.252056201260316 L 11.136023058471395,6.338396573528493 L 11.136067184082727,6.339069937302071 L 11.141216955235382,6.426716803548333 L 11.141248554504754,6.42731598923023 L 11.145404452271139,6.5162655724652865 L 11.145426305096544,6.51679299991919 L 11.148688431930028,6.607041435477845 L 11.148702889650378,6.6074995807381045 L 11.15117175855239,6.699042973983497 L 11.151180779998228,6.699434318590253 L 11.152957278227866,6.79226878931251 L 11.15296246591489,6.792595781949926 L 11.154147819246353,6.886717497423901 L 11.154150454445444,6.886982525946495 L 11.154846193001378,6.982387724489575 L 11.154847268869284,6.9825930965735825 L 11.155155195162719,7.079278103276484 L 11.155155447461722,7.079426034126418 L 11.155177606981754,7.177387270215661 L 11.155177542171536,7.177479875963516 L 11.155016196631175,7.276713863073101 L 11.154773749690689,7.377244420339414 L 11.15455305827484,7.478952209326778 L 11.154457775204921,7.58067117578823 L 11.154515064800197,7.581829978958806 L 11.15553646247639,7.581306338923624 L 12.88547995237019,6.582522999350599 L 12.886452674195718,6.581898079050081 L 12.886511393118017,6.580743408006003 L 12.886853659911761,6.478956336036863 L 12.886856170621595,6.478595946881871 L 12.88793400604964,6.376633741851554 L 12.887939773977122,6.376237025119051 L 12.889810774453046,6.275144727644935 L 12.889820693693038,6.274710655227939 L 12.892545782586481,6.174509474105307 L 12.892560867956837,6.174036987393711 L 12.896200842960946,6.074748157781773 L 12.896222240036904,6.074236176250338 L 12.900837762945091,5.9758809500092624 L 12.900866758435471,5.975328381997248 L 12.906518344668186,5.877928015666282 L 12.906556376935729,5.877333771681666 L 12.913304385048615,5.780909511756482 L 12.91335305450624,5.780272520658098 L 12.921257675988759,5.684845585805118 L 12.921318755018936,5.684164814226706 L 12.930440004783927,5.589756374075513 L 12.930515446728997,5.589030849451619 L 12.940913154800942,5.495661999610521 L 12.941005101458545,5.494890837139282 L 12.952738906488152,5.402582570125434 L 12.952849693419358,5.401765003950204 L 12.96597903878354,5.310538175794913 L 12.966111197605812,5.309673594596954 L 12.980695330990056,5.219548886996106 L 12.980851587688942,5.218636874054962 L 12.996949565184764,5.129634752097846 L 12.997132833347445,5.128675129685149 L 13.014803529218819,5.040815795421678 L 13.015016896982956,5.039808673139966 L 13.034319020348176,4.9531120155281725 L 13.034565729790074,4.952057841882747 L 13.055557849505135,4.8665433840230135 L 13.055841267185071,4.865443000121359 L 13.078581846179144,4.781129845106106 L 13.078905423646564,4.779984538922171 L 13.10345286381679,4.696891316118792 L 13.10382008708326,4.695702875255345 L 13.130232785581292,4.613847689347018 L 13.130647112923862,4.612618449708387 L 13.158983530225655,4.5320188353383895 L 13.159448318209993,4.530751722633473 L 13.189767057744369,4.451424607944986 L 13.19028547606726,4.450123168537396 L 13.222645374379576,4.372084851230728 L 13.223220311014813,4.370753268613967 L 13.257680536483262,4.294019408266451 L 13.258314495638507,4.292662501448603 L 13.294934652695128,4.217248131676474 L 13.295629649181118,4.215871332090169 L 13.334469883899889,4.141790895612281 L 13.33522733857506,4.140400199882635 L 13.376348440497296,4.067667608619245 L 13.377169082347868,4.0662695056518805 L 13.42063257665902,3.994898226664445 L 13.421516357657532,3.9934995990328477 L 13.467384581463199,3.9235027654296535 L 13.468330610472323,3.922110766858058 L 13.516666767072817,3.853501310885336 L 13.517673268612239,3.852123223586168 L 13.568541454433465,3.7849140271727784 L 13.5696057570524,3.7835571046977288 L 13.620221041094169,3.7212683567265503 L 13.623768086691799,3.7173466367341916 L 13.627709465752497,3.7138214486158048 L 13.632001095653878,3.7107322200778525 L 13.636594976369189,3.708113502807196 L 13.641439727326869,3.7059945860253998 L 13.646481162080063,3.70439916890144 L 13.759202199450556,3.6751857831576533 L 13.760241249039359,3.674928335134123 L 13.887800996476104,3.644768089248223 L 13.888803497564288,3.644541910596649 L 14.020476037112727,3.6162535562245615 L 14.021442166664958,3.6160559407012527 L 14.157289082984532,3.589662273357113 L 14.1582192419491,3.589490666716258 L 14.298301915285979,3.565014325469062 L 14.299196689698787,3.5648663333220543 L 14.44357633293385,3.542329795360481 L 14.444436458805022,3.542203186399597 L 14.593174150657187,3.5216287657408287 L 14.594000482731147,3.5215214712858045 L 14.747157197105373,3.502931320726922 L 14.747950681429925,3.502841431437906 L 14.905587313033708,3.486257546966195 L 14.906348963164193,3.486183307446943 L 15.068526349604284,3.4716275344443783 L 15.06925722619688,3.471567336343177 L 15.235267665245347,3.459119003310163 L 15.236372657375112,3.458986077379656 L 15.237358339345796,3.458474063842173 L 16.967357519330722,2.4596585715800448 L 16.968218090886165,2.459102754515785 L 16.967193951557284,2.4591283405668136 L 16.801125201790512,2.4715810460431813 L 16.800759768407683,2.4716111446890876 L 16.63820921337513,2.4862004103840856 L 16.637828393885464,2.4862375296002495 L 16.479802935291595,2.5028623199313245 L 16.479406199454523,2.5029072638592864 L 16.325844480171018,2.5215465738838265 L 16.32543132130621,2.521600220180074 L 16.17627195564432,2.54223296966077 L 16.175841900835625,2.5422962729449483 L 16.031023463497252,2.564901303248967 L 16.030576085490882,2.564975297800822 L 15.890037098760224,2.5895313696961817 L 15.889572029680428,2.5896171710974363 L 15.753250948750022,2.616102963779005 L 15.752767895718447,2.6162017691383905 L 15.620603092088253,2.6445958808752037 L 15.620101854779962,2.6447089672148034 L 15.492031597734602,2.674989918069413 L 15.491512087824194,2.675118638393332 L 15.367474524083809,2.7072648755181503 L 15.366936786432772,2.707410652034496 L 15.246869918192345,2.74140055809275 L 15.246314153492873,2.741564872026192 L 15.13015581521489,2.7773767773075897 L 15.129582403641223,2.777561154730645 L 15.017270238146862,2.8151733535235994 L 15.016679763370206,2.8153793466627035 L 14.908151197981816,2.854770118393568 L 14.907544470685783,2.8549992819437238 L 14.802736694401576,2.8961469174852144 L 14.802114774201172,2.896400779608395 L 14.700964717116065,2.9392836129818973 L 14.70032893155519,2.939563640879929 L 14.602773247959048,2.9841600863199 L 14.602125207058558,2.9844676465718334 L 14.508100263819813,3.030756240579162 L 14.507441868504849,3.0310925548155563 L 14.416883740445435,3.0790520024067995 L 14.416217183132623,3.0794180993488083 L 14.32885565061488,3.129144582813674 L 12.630988117474068,4.109407774860031 L 12.62659799362047,4.111661227466062 L 12.622007119585076,4.113470954431295 L 12.617260212750898,4.114819328120292 L 12.612403510337554,4.1156932147066305 L 12.607484319027897,4.116084102102879 L 12.602550554177522,4.115988182872527 L 12.597650273095518,4.115406391316303 L 12.592831206942511,4.114344394371626 L 12.588140295805568,4.1128125364138315 L 12.583623231478533,4.110825738496836 L 12.579324012401363,4.108403353014703 L 12.575284515093571,4.10556897519975 L 12.571544086256221,4.102350213293323 L 12.568139159515603,4.09877841962787 L 12.565102900541698,4.094888385239727 L 12.562464883998157,4.09071800098722 L 12.526926575778559,4.027871677033192 L 12.526416987995386,4.027011158967873 L 12.486116677435666,3.9619619092833442 L 12.485563929183945,3.961108946906753 L 12.442350033739707,3.8973050920741468 L 12.441756801159398,3.896466821168093 L 12.395523482570807,3.8339027872417777 L 12.394893435985507,3.833086006142441 L 12.34553391498172,3.771756679947321 L 12.344871599678857,3.7709676090288755 L 12.292278302411002,3.7108685629551674 L 12.291588966595738,3.710112638347048 L 12.235653717066214,3.651240312317352 L 12.234943101801399,3.6505220300444803 L 12.175557343340687,3.5928738574173766 L 12.174831453118594,3.59219667801319 L 12.111886479503452,3.535771148967256 L 12.111151353085269,3.5351374654204153 L 12.044538530320072,3.4799341285186247 L 12.043800029661814,3.4793452935033757 L 11.9734109924116,3.425364702412067 L 11.97267462350455,3.424821105257727 L 11.898401434847093,3.3720647220697235 L 11.897672209111102,3.3715659025183387 L 11.819407477633904,3.320035971400083 L 11.818689817152102,3.3195807560307107 L 11.736326770493921,3.2692801610691427 L 11.735624455718357,3.2688668090300013 L 11.649056973753831,3.219798928656871 L 11.648373128853784,3.219425275460902 L 11.557495742497846,3.1715938433086492 L 11.556832851448315,3.171257434269063 L 11.461540714487326,3.1246664133862465 L 11.460900660190802,3.124364621215477 L 11.36108950182914,3.0790180957397273 L 11.360473620760551,3.078748219497121 L 11.256039686017628,3.0346503054719682 L 11.255448831741182,3.0344096501867805 L 11.146288815774811,2.9915644253667772 L 11.145723425894065,2.9913503632090883 L 11.031734407045274,2.949761814442821 L 11.031194569456453,2.9495718292943454 L 10.912273944525397,2.909243815342648 L 10.911759460081369,2.9090755331278646 L 10.787804884184494,2.8700117604549873 L 10.7873153239426,2.8698629677463825 L 10.658224656337467,2.8320669767989566 L 10.657759412417663,2.8319356301219387 L 10.523430668934264,2.795410789779075 L 10.522988998655919,2.79529501780933 L 10.383320310828584,2.7600445259613275 L 10.382901374243028,2.759942626502555 L 10.237790954869306,2.725969515033817 L 10.237393846095781,2.725879948339448 L 10.086739960720866,2.693187091110702 L 10.086363733664044,2.6931084708028483 L 9.93006467736717,2.661698593523418 L 9.92970836647013,2.6616296760825944 L 9.767662445286645,2.631505367223304 L 9.767325081989544,2.631445040783593 L 9.599430598307393,2.602608762898602 L 9.599111223855564,2.6025560358851982 L 9.425266465165688,2.575010136888944 L 9.424964140361283,2.5749641268765995 L 9.245067370797138,2.5487108509623626 L 9.244781183225513,2.5486707740093713 L 9.058730637393374,2.523712272004724 L 9.058459706588787,2.523677432622671 L 8.866146716417132,2.50001492650554 L 8.86590416557932,2.4999844805670577 L 8.794280500345899,2.4908160945088547 L 8.722440736128139,2.4819666093316397 L 8.650623455882565,2.4734645060079226 L 8.578827058192983,2.465306947927596 L 8.507050136960672,2.457491122529302 L 8.435291286095957,2.4500142172414736 L 8.363549099516419,2.4428734194820008 L 8.291822171147608,2.4360659166581957 L 8.220109094921495,2.429588896166542 L 8.148408464776887,2.423439545392663 L 8.076718874657962,2.4176150517111292 L 8.005038918514726,2.4121126024854633 L 7.93336719030189,2.406929385068023 L 7.861702283978075,2.402062586799949 L 7.790042793506536,2.3975093950112214 L 7.718387312852843,2.3932669970205405 L 7.646734435986288,2.3893325801354655 L 7.575082756878103,2.385703331652365 L 7.503430869501277,2.3823764388564967 L 7.431777367830366,2.379349089022083 L 7.360120845840934,2.3766184694123966 L 7.288459897508925,2.3741817672798513 L 7.216793116810241,2.3720361698661225 L 7.145119097720449,2.370178864402285 L 7.073436434214544,2.368607038108956 L 7.001743720266059,2.367317878196444 L 6.930039549847141,2.3663085718649306 L 6.85832251692788,2.3655763063046393 L 6.786591215476087,2.3651182686960333 L 6.714844239456895,2.3649316462100174 L 6.6430801828327875,2.365013626008143 L 6.571297639562392,2.3653613952428296 L 6.4994952036010565,2.3659721410575876 L 6.427671468900333,2.366843050587252 L 6.355825029407594,2.367971310958219 L 6.283954479065564,2.3693541092886927 L 6.212058411812799,2.370988632688923 L 6.140135421582466,2.3728720682614757 L 6.068184102303311,2.375001603101456 L 5.99620304789787,2.377374424296816 L 5.924190852284567,2.3799877189285383 L 5.852146109374824,2.382838674070989 L 5.780067413075478,2.385924476792087 L 5.70795335728668,2.3892423141536394 L 5.63580253590296,2.3927893732115564 L 5.563613542812684,2.396562841016128 L 5.491384971898016,2.4005599046122774 L 5.419115417034772,2.4047777510398256 L 5.346803472092303,2.4092135673337456 L 5.274447730933776,2.413864540524397 L 5.202046787415655,2.4187278576378013 L 5.1295992353882,2.4238007056958533 L 5.057103668694659,2.429080271716619 L 4.9845586811722455,2.434563742714499 L 4.911962866651579,2.4402483057005044 L 4.839314818955949,2.446131147682546 L 4.766613131903155,2.452209455665513 L 4.6938563993041305,2.4584804166516037 L 4.621043214963267,2.464941217640517 L 4.548172172677863,2.471589045629718 L 4.475241866240535,2.478421087614425 L 4.402250889435431,2.485434530588162 L 4.329197836042245,2.4926265615425827 L 4.257337174240708,2.499867815536189 L 4.256046958202784,2.5000669807138265 L 4.254882690472007,2.500657676726579 L 2.866138770967706,3.299934752700278 L 2.866085812964238,3.299968894856228 L 1.1350462576671012,4.29938127830636 L 1.134035550164214,4.3000335223606685 Z" id="path2" sodipodi:nodetypes="ccccccccccc" style="fill: currentColor; stroke: none" fill-rule="evenodd"/>
  <!-- top-right horizontal (overshoots vertical) -->
  <path d="M 14.683589226140832,3.4999237466990336 L 14.684574438862132,3.4998533358825483 L 14.775652208060702,3.4888487458916746 L 14.775860192885576,3.4888240577169563 L 14.869165539835139,3.477946672418303 L 14.869367215654142,3.47792357623631 L 14.963767761285446,3.467306796633556 L 14.96396347899183,3.4672851753689744 L 15.059433347295682,3.456928699599254 L 15.059623435121376,3.456908446641674 L 15.15613677183517,3.4468119629234057 L 15.1563215371895,3.4467929810597484 L 15.253852508041547,3.4369561686968875 L 15.254032239181264,3.4369383691674713 L 15.352555028296573,3.427360899438108 L 15.352729995844667,3.4273442011005097 L 15.452218804292281,3.4180257380448875 L 15.452389262621045,3.418010066631963 L 15.552818307093046,3.4089502677520844 L 15.552984495585182,3.408935555212425 L 15.654328007189443,3.4001340720946382 L 15.654490151389442,3.4001202560053234 L 15.75672237454712,3.391576734875063 L 15.75688068721385,3.3915637579179445 L 15.859975878651648,3.383277840134771 L 15.86013056072188,3.383265649628694 L 15.964062988548177,3.375236972128854 L 15.964214230019719,3.37522551961122 L 16.068958172877714,3.3674537153037707 L 16.069106153619956,3.3674429561556978 L 16.174635899909806,3.3599276542776075 L 16.17478079040859,3.359917547387686 L 16.281070637571933,3.3526583738225946 L 16.281212599615028,3.35264888128487 L 16.388236853476677,3.345645458849543 L 16.38837604078539,3.345636545691903 L 16.496109014945983,3.3388884943940202 L 16.49624557375797,3.3388801283336393 L 16.60466158903251,3.3323870656040797 L 16.60479565864031,3.3323792168269764 L 16.713869042540438,3.3261407577292093 L 16.714000755789765,3.3261333986913395 L 16.823705842044262,3.32014915611047 L 16.823835325795766,3.3201422613580824 L 16.934146453903796,3.3144118461717795 L 16.934273829461578,3.31440539217902 L 17.04516534427981,3.308928413411971 L 17.045290727789695,3.308922378433978 L 17.15673697914873,3.3036984433976424 L 17.15686048196907,3.30369280733756 L 17.268835824314014,3.2987215217568204 L 17.268957553361396,3.2987162660453553 L 17.381436345417914,3.2939972341731734 L 17.381556403490098,3.293992341659458 L 17.494513007951664,3.289525166380804 L 17.494631494029733,3.28952062123349 L 17.608040277265573,3.285304904159506 L 17.608157286797205,3.2853006917771195 L 17.721992618575822,3.2813360333305486 L 17.722108243741353,3.2813321402602478 L 17.836344496975304,3.277618139752673 L 17.836458826938156,3.2776145536166577 L 17.951070377437713,3.2741508093186553 L 17.951183498580598,3.2741475187475406 L 18.066144724824927,3.2709336279520254 L 18.06625672097318,3.270930622524586 L 18.18154200389447,3.267966181604055 L 18.18165295652768,3.2679634517928107 L 18.297236679302078,3.2652480562511106 L 18.297346667755175,3.265245593373269 L 18.413203215608288,3.26277883789209 L 18.413312317263095,3.262776634065436 L 18.529416077282555,3.2605581125461085 L 18.529524367750817,3.2605561606494673 L 18.645849728706146,3.258585466250366 L 18.645957282004886,3.2585837598883085 L 18.762478634176322,3.2568604850581226 L 18.762585522896416,3.2568590185296293 L 18.87927725790893,3.255382755036833 L 18.879383553377693,3.2553815233076606 L 18.996220064041566,3.254151862266376 L 18.99632583648008,3.2541508609449106 L 19.113281516634874,3.2531673928373985 L 19.113386835310806,3.2531666181538026 L 19.230436079676142,3.25242893284972 L 19.23054101305273,3.2524283816382153 L 19.34765821707838,3.2519360684108394 L 19.34776283296023,3.251935738094986 L 19.464922392683437,3.2516883856344676 L 19.465026758359798,3.251688274215332 L 19.58220307026349,3.251685470639118 L 19.582307252649624,3.2516855766862447 L 19.699474713519173,3.251926909546744 L 19.69957877929641,3.251927232191857 L 19.816711786082525,3.2524122884813775 L 19.816815801837617,3.2524128274147803 L 19.933888751515223,3.253141193567799 L 19.9339927838796,3.2531419490374374 L 20.050980073310296,3.254113210930211 L 20.051084189099836,3.2541141837434115 L 20.167960214888197,3.2553279266908697 L 20.16806448124406,3.2553291182187576 L 20.28480363960064,3.256784926968768 L 20.284908124131867,3.2567863391534235 L 20.40148481072456,3.2584837978781986 L 20.401589581652974,3.258485433242595 L 20.51797819146473,3.2604241255273694 L 20.51808331777283,3.2604259871881967 L 20.63425824494874,3.262605496016882 L 20.634363796531293,3.26260758770035 L 20.750299434227294,3.265027495438223 L 20.750405482047228,3.26502982149899 L 20.866076222269655,3.2676897098721027 L 20.86618283851908,3.2676922753154805 L 20.981563071962388,3.270591725386776 L 20.981670330229463,3.2705945358944097 L 21.09673444610445,3.2737331280361808 L 21.096842421546928,3.2737361899954185 L 21.211564807404955,3.277113503858029 L 21.211673576931283,3.277116824395241 L 21.326028618477732,3.2807324388716856 L 21.32613826093664,3.2807360258898215 L 21.440100341836718,3.2845895190759165 L 21.440210938216268,3.2845933812966366 L 21.553754439891986,3.288684330446494 L 21.553866073529207,3.2886884774572582 L 21.666965374941537,3.2930164589334705 L 21.667078131743793,3.293020901240006 L 21.778590127015555,3.2975402017196 L 21.77975101013098,3.2975326519745747 L 21.78078255133421,3.2970000833382254 L 23.51074202508136,2.298207515483162 L 23.51163225960718,2.297632918791893 L 23.51057698943432,2.2975376101836233 L 23.39912891126472,2.2930209001032935 L 23.28591682565977,2.288688475398527 L 23.172261691614946,2.2845933794055604 L 23.058189015489866,2.2807360241559604 L 22.94372433253314,2.2771168228092993 L 22.82889317809633,2.2737361885490732 L 22.71372108763097,2.270594534580274 L 22.598233596682135,2.267692274127017 L 22.482456240884652,2.265029820430424 L 22.36641455596005,2.2626075867466406 L 22.25013407771267,2.2604259863449703 L 22.133640342026503,2.258485432506111 L 22.016958884863886,2.256786338520536 L 21.900115242261748,2.2553291176868924 L 21.783134950330496,2.2541141833105187 L 21.66604354525386,2.2531419487020132 L 21.54886656328494,2.2524128271758115 L 21.431629540747604,2.251927232048837 L 21.314358014035797,2.2516855766391624 L 21.1970775196117,2.2516882742646698 L 21.079813594007703,2.251935738241727 L 20.962591773825622,2.2524283818838478 L 20.84543759573756,2.253166618500338 L 20.728376596486818,2.2541508613949053 L 20.611434312889525,2.2553815238642287 L 20.494636281836154,2.2568590191964764 L 20.37800804029248,2.2585837606697714 L 20.26157512530313,2.2605561615505505 L 20.14536307399374,2.262776635091856 L 20.02939742357344,2.2652455945315206 L 19.913703711338638,2.2679634530902186 L 19.79830747467728,2.270930623969372 L 19.68323425107169,2.2741475203489436 L 19.568509578104955,2.2776145553849707 L 19.454158993464848,2.28133214220698 L 19.340208034950795,2.2853006939150933 L 19.22668224047875,2.2895206235769643 L 19.11360714808997,2.2939923442243204 L 19.001008295957178,2.2987162688492813 L 18.888911222394075,2.3036928104002277 L 18.777341465864367,2.3089223817772924 L 18.66632456499226,2.3144053958273747 L 18.55588605857294,2.3201422653386676 L 18.446051485586153,2.3261334030344987 L 18.336846385208673,2.332379221566617 L 18.228262197410864,2.338882175673823 L 18.22819395937231,2.338886356169702 L 18.120426803218216,2.3456365485190815 L 18.013263314789885,2.3526488874598024 L 17.906831501125282,2.35991755414015 L 17.80115685949519,2.3674429635455967 L 17.69626493063278,2.375225527705962 L 17.592181255610154,2.383265658504253 L 17.488931375867267,2.3915637676601293 L 17.386540833244965,2.4001202667111876 L 17.285035170020393,2.4089355669919206 L 17.184439928946055,2.4180100796099353 L 17.08478065329347,2.427344215418983 L 16.986082886902526,2.436938384988261 L 16.888372174233616,2.44679299856776 L 16.791674060428786,2.4569084660484752 L 16.696014091376288,2.4672851969173517 L 16.601417813786217,2.477923600205365 L 16.50791077527083,2.4888240844284617 L 16.416662937126308,2.499848787827549 L 16.41543173919804,2.5000609715780553 L 16.41431956001681,2.500630376293153 L 14.684419460347772,3.499388664508232 L 14.683589226140832,3.4999237466990336 Z" id="path2b" sodipodi:nodetypes="cc" style="fill: currentColor; stroke: none" fill-rule="evenodd"/>
  <!-- right vertical -->
  <path d="M 21.134032894676363,17.699903750933313 L 21.1350260414717,17.699392947798348 L 22.864937025954337,16.700628375233205 L 22.86596536220512,16.699963632565204 L 22.866078182867703,16.698744358290273 L 22.875357358433856,16.477987968532137 L 22.884600263190283,16.255674529885898 L 22.893747098501873,16.033079806260037 L 22.902791301156043,15.810213173452157 L 22.911726307918755,15.587084007781492 L 22.920545555556316,15.363701685565445 L 22.92924248083486,15.140075583135438 L 22.937810520522188,14.91621507679056 L 22.94624311138601,14.69212954284471 L 22.95453369019406,14.467828357625802 L 22.96267569371595,14.243320897427441 L 22.970662558721173,14.018616538564496 L 22.978487721979732,13.79372465735821 L 22.9861446202632,13.568654630107797 L 22.99362669034394,13.343415833113964 L 23.000927368994613,13.118017642695804 L 23.008040092989507,12.892469435152938 L 23.01495829910365,12.66678058679403 L 23.02167542411341,12.44096047391984 L 23.028184904795943,12.215018472844424 L 23.034480177930273,11.988963959859541 L 23.04055468029623,11.762806311273927 L 23.04640184867502,11.536554903396114 L 23.052015119849496,11.31021911252635 L 23.057387930603966,11.083808314966397 L 23.062513717724332,10.857331887015661 L 23.067385917997836,10.630799204987397 L 23.071997968213783,10.4042196451777 L 23.07634330516298,10.177602583896084 L 23.080415365638405,9.950957397434902 L 23.084207586434484,9.724293462112056 L 23.087713404348083,9.497620154220336 L 23.09092625617785,9.270946850069377 L 23.093839578724634,9.044282925966808 L 23.0964468087916,8.817637758212594 L 23.09874138318419,8.591020723111658 L 23.10071673871012,8.364441196978543 L 23.102366312179758,8.13790855610997 L 23.103683540405893,7.911432176823449 L 23.1046618602041,7.685021435415053 L 23.105294708392595,7.458685708205257 L 23.105575521792513,7.232434371495272 L 23.105497737227914,7.006276801601912 L 23.105054791525898,6.780222374829284 L 23.10424012151674,6.554280467495621 L 23.103047164033942,6.3284604559085995 L 23.101469355914407,6.102771716385505 L 23.0995001339985,5.877223625238631 L 23.097132935130166,5.651825558781481 L 23.09436119615713,5.426586893333941 L 23.0911783539309,5.201517005211529 L 23.08757784530694,4.976625270730568 L 23.083553107144866,4.751921066212728 L 23.079097576308513,4.527413767978478 L 23.074204689665933,4.303112752342862 L 23.06886788408997,4.079027395635069 L 23.06308059645777,3.8551670741710184 L 23.056836263651647,3.6315411642807054 L 23.050128322558482,3.4081590422823442 L 23.042950210070597,3.1850300845062858 L 23.03529536308536,2.9621636672763594 L 23.027157218505636,2.7395691669194515 L 23.018529213239884,2.5172559597633986 L 23.00945260000536,2.2963969125732757 L 23.00935086873998,2.295269151637685 L 23.00834372389665,2.2957867291182 L 21.278422804542693,3.294557037583973 L 21.27741247907849,3.295209002895686 L 21.277402387792453,3.296411381570257 L 21.286473849507253,3.517141924605244 L 21.286478406821207,3.5172559885654775 L 21.295102181824927,3.739456946569106 L 21.29510641198591,3.739569194772982 L 21.303240640523068,3.9620532436947893 L 21.30324455647085,3.9621636942089644 L 21.310895789069704,4.184921440015195 L 21.310899403367227,4.185030110543956 L 21.318074190927288,4.408052159566414 L 21.318077515771957,4.4081590674531945 L 21.32478240955244,4.631436026374589 L 21.324785456787122,4.631541188603582 L 21.331027008396855,4.8550636644782115 L 21.33102978952048,4.855167097676045 L 21.336814550906613,5.078925697901016 L 21.336817077084515,5.079027418338484 L 21.34215160052317,5.303012750681254 L 21.34215388259706,5.303112774275085 L 21.347044720682646,5.527315446837994 L 21.347046769180334,5.5274137891526784 L 21.351500474816895,5.751824410409539 L 21.35150229996164,5.751921086659157 L 21.35552542635274,5.97653026541236 L 21.3555270380724,5.976625290462446 L 21.359126138712988,6.201423635883387 L 21.359127546648775,6.201517024252803 L 21.36230917531575,6.426495145838143 L 21.362310388830835,6.426586911700944 L 21.3650810995753,6.65173541930932 L 21.36508212776303,6.651825576496637 L 21.367448474901607,6.877135080313129 L 21.367449326593565,6.877223642315004 L 21.369417864700935,7.102684752877672 L 21.369418548474655,7.102771732844927 L 21.370995832375637,7.3283750610219665 L 21.37099635656214,7.328460471767992 L 21.372188941324456,7.5541966287686275 L 21.37218931401551,7.554280482771186 L 21.37300375494256,7.7801400801337435 L 21.373003983997723,7.780222389536718 L 21.373446836621703,8.006196039139338 L 21.373446929675122,8.006276815754427 L 21.373524749750327,8.232355129806498 L 21.37352471421732,8.2324343851149 L 21.373244057713638,8.458607976144636 L 21.37324390079709,8.458685721298638 L 21.37261132389375,8.684945202180543 L 21.372611052590234,8.6850214480051 L 21.371633111669777,8.911357431921035 L 21.37163273277555,8.911432188915244 L 21.370315984417907,9.13783528938736 L 21.370315504534638,9.137908567725901 L 21.368666505511552,9.36436939859086 L 21.368665931051904,9.364441208125356 L 21.366691238321373,9.590950383549306 L 21.366690575514365,9.591020733809609 L 21.364396746215483,9.817568868270566 L 21.364396001111697,9.817637768465977 L 21.36178959255942,10.044215476768636 L 21.361788771035997,10.044282935789017 L 21.358876340716172,10.270880833064417 L 21.35887544848165,10.270946859481256 L 21.355663554046647,10.49755556115621 L 21.35566259664565,10.49762016322357 L 21.35215779590918,10.72423028506594 L 21.35215677872689,10.724293470721324 L 21.34836562966012,10.950895628799781 L 21.348364557926637,10.950957405664917 L 21.344293618653627,11.177542216368495 L 21.34429249744814,11.177602591749986 L 21.339948326241835,11.404160671783323 L 21.339947160496653,11.404219652673243 L 21.335336315774857,11.63074161905755 L 21.335335110279274,11.630799212133898 L 21.33046415060109,11.857275682195699 L 21.33046291000513,11.857331893822755 L 21.325338394067,12.083753485209252 L 21.325337122884985,12.08380832143784 L 21.319965609517237,12.310165652111733 L 21.31996431213123,12.310219118679333 L 21.314352360294986,12.536502806908507 L 21.3143510409581,12.536554909239292 L 21.308505209741657,12.762755573612033 L 21.308503872581216,12.762806316816748 L 21.302430721197254,12.988914576229938 L 21.29613545800015,13.21497043877596 L 21.289625983487493,13.44091378525778 L 21.282908860994926,13.666735239688903 L 21.275990653856997,13.892425426077084 L 21.26887792540701,14.117974968431929 L 21.26157723897681,14.34337449077326 L 21.254095157897634,14.568614617105663 L 21.24643824549918,14.793685971450588 L 21.238613065110528,15.01857917781889 L 21.230626180059982,15.243284860218598 L 21.222484153674383,15.467793642676058 L 21.21419354928015,15.692096149207686 L 21.205760930203496,15.916183003816425 L 21.197192859768645,16.14004483054175 L 21.188495901300154,16.363672253398555 L 21.179676618122425,16.5870558963926 L 21.170741573557937,16.810186383567476 L 21.161697330930057,17.03305433893449 L 21.152550453560615,17.255650386534494 L 21.1433075047722,17.477965150383646 L 21.134025584314717,17.69878696672932 L 21.134032894676363,17.699903750933313 Z" id="path2c" sodipodi:nodetypes="cc" style="fill: currentColor; stroke: none" fill-rule="evenodd"/>
  <!-- V on left page -->
  <path d="M 4.022827050034122,7.30993823641934 L 4.0231060830303145,7.3110576753536645 L 6.288673041954304,14.844897188212448 L 6.289068580804682,14.846007657008032 L 6.290117675973142,14.84547007793886 L 7.586952241981027,14.096742292159796 L 7.588026555664583,14.096045644574268 L 7.588836992456355,14.09505435251051 L 7.63501060384035,14.03221084454891 L 7.635281663789792,14.031834662806368 L 7.682483974292556,13.96502889553733 L 7.682728602765605,13.96467628768213 L 7.730311082682124,13.894818083809666 L 7.730532867185123,13.894486824845979 L 7.77846409691772,13.821646758107807 L 7.778666046618451,13.821334835559124 L 7.826915130601869,13.74558327225358 L 7.827099782093293,13.745288871406782 L 7.875636253864274,13.666695986812988 L 7.8758057558503625,13.66641747385713 L 7.924599501923245,13.585053269744815 L 7.924755683252782,13.584789174489178 L 7.97377688185466,13.500723496448465 L 7.973921306388268,13.500472495580505 L 8.023140377956913,13.413775049465633 L 8.023274388997162,13.413535950867432 L 8.072661956011915,13.324276318004536 L 8.072786712440648,13.324048046361312 L 8.12225504393011,13.232404115332846 L 8.17201258850965,13.13800509224974 L 8.221843356200612,13.04126193416586 L 8.27171961275467,12.942242448749749 L 8.32161330994067,12.841015020961823 L 8.371496388178024,12.737648042339497 L 8.42134077835529,12.632209910294506 L 8.471118403326887,12.524769027481247 L 8.520801179152082,12.415393801227957 L 8.570361016120922,12.304152643035577 L 8.61976981961097,12.191113968128942 L 8.66899949080161,12.076346195064941 L 8.718021927274698,11.959917745384418 L 8.766809023519944,11.841897043307227 L 8.815332671361212,11.722352515466659 L 8.86356476031937,11.601352590673796 L 8.911477177920906,11.478965699711964 L 8.95904180996,11.355260275161532 L 9.0062305407263,11.230304751239577 L 9.053015253197898,11.104167563668858 L 9.099367829210445,10.976917149558574 L 9.145260149602777,10.8486219473051 L 9.190664094344664,10.719350396505385 L 9.23555154264815,10.589170937885774 L 9.279894373067288,10.458152013238507 L 9.323664463584578,10.326362065375887 L 9.366833691690704,10.193869538087371 L 9.40937393445476,10.060742876112016 L 9.451257068589772,9.927050525115163 L 9.492454970512078,9.792860931677561 L 9.532939516397635,9.65824254329015 L 9.57268258223583,9.523263808355894 L 9.611656043880165,9.3879931762037 L 9.64983177709974,9.252499097104531 L 9.687181657629287,9.116850022300378 L 9.723677561220816,8.981114404039108 L 9.759291363697418,8.845360695616533 L 9.793994941009117,8.70965735143042 L 9.827760169293377,8.574072827041157 L 9.860558924940367,8.438675579243661 L 9.892363084664828,8.303534066149497 L 9.923144525586057,8.16871674727946 L 9.952875125317203,8.034292083670119 L 9.981526762066304,7.9003285379932295 L 10.009071314752106,7.766894574685587 L 10.035480663134928,7.634058660101717 L 10.060726687969037,7.501889262675154 L 10.084781271177217,7.370454853103745 L 10.107616296054,7.239823904550358 L 10.129203647501539,7.110064892865763 L 10.149515212304857,6.981246296831747 L 10.168522879453196,6.853436598428244 L 10.186198540516678,6.726704283120981 L 10.202389689514876,6.60207539452324 L 10.202478656062564,6.600977205471747 L 10.20149859068675,6.60148154841 L 8.90461169731786,7.350239545405025 L 8.903566172758676,7.350916499322948 L 8.90334296814897,7.35214188412499 L 8.887222976852765,7.476239885147227 L 8.887160323524162,7.476705108434758 L 8.869549257583992,7.602989031743512 L 8.869484664014532,7.603437359260194 L 8.850543263367024,7.730814405844137 L 8.850476998729096,7.731247000420861 L 8.830233144400834,7.859647602101401 L 8.830165435980945,7.8600655455498565 L 8.808647048049691,7.989420211615507 L 8.808578086690625,7.989824511894428 L 8.785813119257023,8.120063822229442 L 8.785743064003846,8.120455420007037 L 8.761759500898076,8.251510018802527 L 8.761688482965118,8.251889793464366 L 8.736514334081596,8.383690383458847 L 8.736442460239148,8.38405915860899 L 8.710105758408266,8.516536495813876 L 8.710033113872171,8.516895044314905 L 8.682561912191856,8.649979933184275 L 8.68248856308607,8.65032898177932 L 8.653910932651304,8.783952270769547 L 8.653836928102557,8.784292504326583 L 8.624180956074806,8.918385081825589 L 8.62410632998913,8.9187171472415 L 8.593400117963935,9.05320993781237 L 8.593324890526969,9.05353444761147 L 8.561596553158179,9.188358408531403 L 8.561520732094488,9.188675944190491 L 8.528798395944664,9.323762062245974 L 8.528721977565636,9.324073177275482 L 8.495033780154419,9.459352465790234 L 8.49495675021942,9.459657688598808 L 8.460330839248918,9.595061184661583 L 8.460253173660236,9.595361021229342 L 8.424717706396738,9.730819783105753 L 8.424639371745226,9.731114719489568 L 8.388222514543063,9.866559824190547 L 8.388143468518209,9.866850328883157 L 8.350873396474537,10.002212869865165 L 8.350793588149982,10.002499396028425 L 8.312698484877739,10.137710481016919 L 8.312617854880699,10.13799346860832 L 8.273725912396369,10.272984217511311 L 8.273644392967253,10.273264095321894 L 8.233983811683986,10.407965638231184 L 8.233901326630342,10.408242825852176 L 8.193500315457204,10.542586301101052 L 8.193416780004263,10.542861210835923 L 8.152303556547631,10.676777763106605 L 8.152218877085772,10.677050801844917 L 8.110421667954503,10.810471580305643 L 8.110335741682121,10.81074315137476 L 8.067882782898938,10.943599307830542 L 8.067795497357324,10.943869812841378 L 8.024715034880836,11.076092499882154 L 8.024626267375723,11.076362340585279 L 7.98094655773889,11.207882709716579 L 7.980856174641212,11.208152289885486 L 7.936605485715574,11.338901489622087 L 7.936513341631789,11.339171216981093 L 7.891719953528441,11.469080390885622 L 7.8916258903282,11.469350679100799 L 7.8463180964473995,11.598350963753232 L 7.846221942133579,11.598622234505964 L 7.800428050382728,11.72664475737433 L 7.800329617785648,11.72691744253869 L 7.754077951981732,11.85389331974016 L 7.753977037255642,11.85416786368703 L 7.707295938740258,11.980028197603636 L 7.7071923196359275,11.980305059656871 L 7.660110149127368,12.104980936390866 L 7.660003583009494,12.105260593463436 L 7.61254872273053,12.228683080090475 L 7.612438944302776,12.228966029531625 L 7.564639800420196,12.351066171131441 L 7.564526519113471,12.351352933819847 L 7.516411524542005,12.472061750236053 L 7.516294421513166,12.472352873958066 L 7.467892039138918,12.59160135625265 L 7.467770763816761,12.59189741941011 L 7.419109490210815,12.709616525961023 L 7.418983656313936,12.70991814165888 L 7.370092026017458,12.826038793850522 L 7.369961206953495,12.82634661442153 L 7.3279341101620945,12.924325765001921 L 7.32579063743683,12.92871716544965 L 7.323228733706542,12.932878357886079 L 7.320272869120978,12.93676959647656 L 7.316951276766411,12.940353713863916 L 7.313295682995924,12.943596476174267 L 7.309341004393589,12.946466910003586 L 7.305125014266988,12.948937598261674 L 7.300687981853606,12.950984942047866 L 7.296072287687227,12.952589386057081 L 7.291322018798169,12.953735605363285 L 7.286482547613854,12.954412651796284 L 7.2816000985818174,12.954614058513705 L 7.276721306654627,12.954337901769357 L 7.271892771853836,12.953586819287997 L 7.267160614167575,12.952367985070962 L 7.2625700330332155,12.95069304087335 L 7.2581648756127155,12.948577985007214 L 7.253987217984292,12.946043019532906 L 7.250076963250685,12.94311235729809 L 7.246471460402707,12.939813990667549 L 7.243205147578511,12.936179424152716 L 7.240309223126023,12.932243373494792 L 7.237811347610381,12.928043434075631 L 7.235735379612684,12.923619721823597 L 7.234101147843581,12.919014490044294 L 5.322160258045696,6.561111111787555 L 5.3217647191953175,6.560000642991968 L 5.320715624026842,6.560538222061148 L 4.023797451475395,7.3093142781006435 L 4.022827050034122,7.30993823641934 Z" id="path3" sodipodi:nodetypes="ccc" style="fill: currentColor; stroke: none" fill-rule="evenodd"/>
</svg>
