<svg xmlns="http://www.w3.org/2000/svg" viewBox="0 0 25 25" width="20" height="20"><path d="M25 3.72273C25 4.98879 24.3687 6.10367 23.4007 6.78394L14.0783 14.2669C13.9099 14.3992 13.6785 14.1913 13.8047 14.0023L17.2348 7.86103C17.3401 7.69096 17.2138 7.4831 17.0034 7.4831H3.74579C1.6835 7.4831 0 5.80133 0 3.74163C0 1.68193 1.6835 0.000157697 3.74579 0.000157697H21.2542C23.3165 -0.0187386 25 1.66303 25 3.72273ZM3.74579 25H21.2542C23.3165 25 25 23.3182 25 21.2585C25 19.1988 23.3165 17.5171 21.2542 17.5171H7.99663C7.80724 17.5171 7.68098 17.3092 7.76515 17.1391L11.1953 10.9978C11.3215 10.8278 11.0901 10.601 10.9217 10.7333L1.59933 18.2162C0.631313 18.8776 0 19.9925 0 21.2585C0 23.3182 1.6835 25 3.74579 25Z" fill="black"/></svg>
